<?xml version="1.0" encoding="utf-8"?>
<!-- Generator: Adobe Illustrator 22.1.0, SVG Export Plug-In . SVG Version: 6.00 Build 0)  -->
<svg version="1.1" id="Calque_1" xmlns="http://www.w3.org/2000/svg" xmlns:xlink="http://www.w3.org/1999/xlink" x="0px" y="0px"
	 viewBox="0 0 841.5 775.5" style="enable-background:new 0 0 841.5 775.5;" xml:space="preserve">
<style type="text/css">
	.st0{fill:#F7F7F7;}
	.st1{fill:#FFFFFF;}
	.st2{fill:#DDDDDD;}
	.st3{fill:#F4F4F4;}
	.st4{fill:#D1D1D1;}
	.st5{fill:#BFBFBF;}
	.st6{fill:#FFC900;}
	.st7{fill:#141E54;}
	.st8{fill:#1D2D7F;}
</style>
<title>Plan de travail 1 copie</title>
<g id="FOND">
	<circle class="st0" cx="171.2" cy="135.5" r="14.3"/>
	<circle class="st0" cx="81.1" cy="162.5" r="9.3"/>
	<path class="st0" d="M147.2,354.1c-36,4.9-70.6,18.1-93.7,56.4s18.8,70.4-14,100.1s-52,114.8,14,97.2c30.3-8,48.3,0.4,114.2-5.1
		s78.5-26.5,146.3-26.5s86.1-16.5,123.3-46.6s-13.3-11-36.8-49.1S183.2,349.3,147.2,354.1z"/>
	<path class="st1" d="M59.4,395.4c-0.4-4.8,0.5-8.7,2.7-11.7c2-2.9,5.1-4.7,8.6-5c2.9-0.4,5.8,0.6,7.8,2.7c2.2,2.3,3.4,5.2,3.6,8.3
		c0.4,4.8-0.5,8.7-2.7,11.7c-2,2.9-5.2,4.7-8.6,5c-2.9,0.4-5.8-0.6-7.9-2.7C60.8,401.4,59.6,398.5,59.4,395.4z M63.4,394.7
		c0.1,2.2,0.9,4.3,2.2,6c1.1,1.5,3,2.2,4.8,2c2.5-0.2,4.8-1.6,6.1-3.7c1.5-2.3,2.1-5.3,1.8-9c-0.1-2.1-0.9-4.2-2.2-5.8
		c-1.2-1.5-3-2.2-4.9-2c-2.5,0.2-4.7,1.6-6,3.7C63.6,388.1,63,391,63.4,394.7L63.4,394.7z M71.3,430.1l28.1-58.5l3.2,1.6l-28.1,58.4
		L71.3,430.1z M90.5,414.4c-0.4-4.8,0.5-8.7,2.7-11.7c2-2.9,5.1-4.7,8.6-5c2.9-0.4,5.8,0.6,7.8,2.7c2.2,2.3,3.4,5.2,3.6,8.3
		c0.4,4.8-0.5,8.7-2.7,11.7c-2,2.9-5.2,4.7-8.6,5c-2.9,0.4-5.8-0.6-7.9-2.7C91.9,420.4,90.7,417.5,90.5,414.4z M94.5,413.7
		c0.1,2.2,0.9,4.3,2.2,6c1.1,1.5,3,2.3,4.8,2c2.5-0.2,4.8-1.6,6.1-3.7c1.5-2.3,2.1-5.3,1.8-9c-0.1-2.1-0.9-4.2-2.2-5.8
		c-1.2-1.5-3-2.2-4.9-2c-2.5,0.2-4.7,1.6-6,3.7C94.7,407.1,94.1,410.1,94.5,413.7L94.5,413.7z"/>
	<path class="st2" d="M336.2,613.7c-7.6-22.8-18.7-37.2-33.1-42.7c-17.2-6.6-33.7,1.2-51.1,9.5c-16.3,7.7-33.1,15.7-50.4,10.7
		c-20.4-5.9-36.2-28.6-47.3-67.5l0.9-0.2c10.9,38.5,26.6,61,46.7,66.9c17,5,33.7-3,49.8-10.6c16.8-8,34.2-16.3,51.7-9.5
		c14.6,5.6,25.9,20.1,33.6,43.2L336.2,613.7z"/>
	<path class="st0" d="M294.7,170.4c12.8-16.2,108.8-3.3,153.4-47.6c17.8-17.6,45.9-36.3,71.3-40.3c20.5-3.2,65.1,10.4,86.2,9.5
		c21.8-0.9,40.7-17.1,59-29c33.4-21.8,132.3-30.9,144,14.7c9.6,37.1-20.1,96.5-40.6,136.5c-16.1,31.5,4.7,71.2,0,104.2
		c-8.2,57.2-68.1,60.1-62.7,134c2.9,39.8-67.3-81.5-105.8-85.4c-29.2-2.9-66.1-10-86.4-33.3c-11.1-12.8-19-26.7-32.2-38
		c-12.7-10.9-27-19.6-42.4-26c-11-4.5-22.7-7.8-32.5-14.5c-32.1-21.5-92.1-69.5-66.5-85C348.4,164.9,286.8,180.4,294.7,170.4z"/>
	
		<rect x="43.3" y="493.6" transform="matrix(0.9138 -0.4063 0.4063 0.9138 -202.7836 61.6444)" class="st2" width="1.1" height="29.7"/>
	
		<rect x="29" y="507.9" transform="matrix(0.9139 -0.4059 0.4059 0.9139 -202.6293 61.5601)" class="st2" width="29.7" height="1.1"/>
	<circle class="st1" cx="707.5" cy="224.4" r="9.1"/>
	<circle class="st1" cx="104.5" cy="533.8" r="8.9"/>
	<circle class="st1" cx="29.2" cy="588.1" r="5.2"/>
	<ellipse class="st3" cx="753.3" cy="766.2" rx="76.4" ry="1.3"/>
	
		<rect x="716.1" y="290.1" transform="matrix(0.8635 -0.5044 0.5044 0.8635 -57.4389 403.4352)" class="st1" width="0.9" height="35.5"/>
	
		<rect x="698.8" y="307.4" transform="matrix(0.8637 -0.5041 0.5041 0.8637 -57.4803 403.1696)" class="st1" width="35.5" height="0.9"/>
	<circle class="st3" cx="797" cy="222.5" r="14.4"/>
	<circle class="st1" cx="776.2" cy="113.2" r="13.6"/>
	<circle class="st3" cx="634.7" cy="36.7" r="9.3"/>
</g>
<g id="ELEMENT">
	<path class="st2" d="M97.4,271.5c-1.2-1.9-2.7-3.6-4.5-4.9c-4.1-3-9.2-4.1-14.9-3.1l-0.1-0.9c9.7-1.7,15.6,2.7,18.4,5.8
		c-2.3-7-5.5-24.3,14.5-34.5l0.4,0.8c-24.5,12.5-13,36.1-12.9,36.3L97.4,271.5z"/>
	<path class="st4" d="M143,166.3h528.5c4,0,7.2,3.2,7.2,7.2v394.1c0,4-3.2,7.2-7.2,7.2H143c-4,0-7.2-3.2-7.2-7.2V173.5
		C135.8,169.5,139,166.3,143,166.3z"/>
	<circle class="st1" cx="156" cy="187.8" r="4.8"/>
	<circle class="st1" cx="176" cy="187.8" r="4.8"/>
	<circle class="st1" cx="195.3" cy="187.8" r="4.8"/>
	<rect x="146.1" y="209.3" class="st3" width="522.5" height="352"/>
	<rect x="167" y="230.4" class="st1" width="480.4" height="309.8"/>
	<path class="st2" d="M279.4,282.8l3.8,0.8c-0.1,2.2-1.1,4.3-2.7,5.9c-1.6,1.5-3.7,2.3-5.9,2.2c-2.6,0.1-5-1-6.7-2.9
		c-1.7-1.9-2.6-4.8-2.6-8.6c0-3.5,0.9-6.3,2.7-8.2c1.7-1.9,4.1-2.9,6.6-2.9c2.1-0.1,4.1,0.7,5.7,2.1c1.6,1.5,2.5,3.4,2.7,5.6
		l-3.8,0.6c-0.5-3.3-2.1-4.9-4.6-4.9c-1.6,0-3,0.7-4,1.9c-1.1,1.3-1.6,3.2-1.6,5.9c0,2.6,0.5,4.6,1.6,6c0.9,1.3,2.4,2,4,2
		C277.3,288.4,278.9,286.5,279.4,282.8z"/>
	<path class="st2" d="M274.6,292.2c-2.7,0.1-5.2-1-7-3c-1.8-2-2.7-5-2.7-8.9c0-3.6,1-6.5,2.8-8.5c1.8-1.9,4.3-3,6.9-3
		c2.2-0.1,4.4,0.7,6,2.2c1.6,1.5,2.7,3.6,2.9,5.8c0,0.2-0.1,0.4-0.4,0.5l-3.8,0.6c-0.2,0-0.4-0.1-0.5-0.4c-0.5-3.1-1.9-4.6-4.2-4.6
		c-1.4,0-2.8,0.6-3.7,1.8c-1,1.2-1.5,3.1-1.5,5.6s0.5,4.5,1.5,5.8c0.8,1.2,2.2,1.9,3.7,1.8c2.5,0,3.9-1.7,4.3-5.2
		c0-0.1,0.1-0.2,0.2-0.3c0.1-0.1,0.1-0.1,0.2-0.1l3.8,0.8c0.2,0,0.3,0.2,0.3,0.5c-0.2,2.3-1.1,4.5-2.8,6.2
		C279.1,291.4,276.9,292.2,274.6,292.2z M274.6,269.6c-2.4,0-4.7,1-6.3,2.8c-1.7,1.8-2.6,4.5-2.6,7.9c0,3.7,0.8,6.5,2.5,8.3
		c1.6,1.8,4,2.8,6.4,2.7c2.1,0.1,4.1-0.7,5.6-2.1c1.4-1.4,2.3-3.3,2.5-5.3l-3-0.6c-0.6,3.6-2.3,5.5-5.1,5.5c-1.7,0-3.3-0.8-4.3-2.2
		c-1.1-1.4-1.7-3.5-1.7-6.3s0.6-4.8,1.7-6.1c1-1.3,2.6-2.1,4.3-2.1c2.7,0,4.3,1.6,5,4.9l3-0.5c-0.2-1.9-1.1-3.6-2.5-4.9
		C278.6,270.2,276.6,269.5,274.6,269.6L274.6,269.6z"/>
	<path class="st2" d="M293.2,291.3v-21.6h13.5v3.4h-9.8v5.6h9v3.2h-9v6.1h9.8v3.4L293.2,291.3z"/>
	<path class="st2" d="M306.7,291.7h-13.5c-0.2,0-0.4-0.2-0.4-0.4v-21.6c0-0.2,0.2-0.4,0.4-0.4c0,0,0,0,0,0h13.5
		c0.2,0,0.4,0.2,0.4,0.4c0,0,0,0,0,0v3.4c0,0.2-0.2,0.4-0.4,0.4h-9.4v4.7h8.5c0.2,0,0.4,0.2,0.4,0.4v3.2c0,0.2-0.2,0.4-0.4,0.4h-8.5
		v5.2h9.4c0.2,0,0.4,0.2,0.4,0.4v3.4C307.1,291.5,306.9,291.7,306.7,291.7z M293.6,290.9h12.6v-2.5h-9.4c-0.2,0-0.4-0.2-0.4-0.4
		v-6.1c0-0.2,0.2-0.4,0.4-0.4h8.5V279h-8.5c-0.2,0-0.4-0.2-0.4-0.4V273c0-0.2,0.2-0.4,0.4-0.4c0,0,0,0,0,0h9.4v-2.5h-12.6V290.9z"/>
	<path class="st2" d="M317.4,291.3v-21.6h8.6c1.9-0.1,3.9,0.5,5.4,1.8c2.4,2.4,2.7,6.3,0.7,9c-0.9,1.1-2.1,1.9-3.5,2.2l4.7,8.6h-4.1
		l-4.4-8.3H321v8.3L317.4,291.3z M321,279.8h4.7c2.7,0,4-1.1,4-3.4s-1.3-3.4-4-3.4H321V279.8z"/>
	<path class="st2" d="M333.2,291.7h-4c-0.2,0-0.3-0.1-0.4-0.2l-4.3-8.1h-3.1v7.9c0,0.2-0.2,0.4-0.4,0.4h-3.6c-0.2,0-0.4-0.2-0.4-0.4
		v-21.6c0-0.2,0.2-0.4,0.4-0.4c0,0,0,0,0,0h8.6c2.1-0.1,4.1,0.6,5.7,1.9c2.6,2.6,2.9,6.7,0.8,9.6c-0.8,1-2,1.8-3.2,2.2l4.4,8.2
		c0.1,0.1,0.1,0.3,0,0.4C333.5,291.6,333.4,291.7,333.2,291.7z M329.4,290.9h3.1l-4.3-8c-0.1-0.1-0.1-0.2,0-0.4
		c0.1-0.1,0.2-0.2,0.3-0.2c1.3-0.3,2.5-1,3.3-2.1c0.8-1.1,1.3-2.4,1.2-3.8c0.1-1.8-0.6-3.5-1.9-4.6c-1.4-1.2-3.2-1.8-5.1-1.7h-8.2
		v20.8h2.8V283c0-0.2,0.2-0.4,0.4-0.4c0,0,0,0,0,0h3.8c0.2,0,0.3,0.1,0.4,0.2L329.4,290.9z M325.7,280.2H321c-0.2,0-0.4-0.2-0.4-0.4
		c0,0,0,0,0,0v-6.9c0-0.2,0.2-0.4,0.4-0.4c0,0,0,0,0,0h4.7c3.6,0,4.4,2.1,4.4,3.9S329.4,280.2,325.7,280.2L325.7,280.2z
		 M321.4,279.4h4.3c2.4,0,3.6-1,3.6-3s-1.1-3-3.6-3h-4.3V279.4z"/>
	<path class="st2" d="M347.6,291.3V273h-6.5v-3.4h16.5v3.4h-6.4v18.3L347.6,291.3z"/>
	<path class="st2" d="M351.2,291.7h-3.7c-0.2,0-0.4-0.2-0.4-0.4v-17.9h-6c-0.2,0-0.4-0.2-0.4-0.4v-3.4c0-0.2,0.2-0.4,0.4-0.4
		c0,0,0,0,0,0h16.5c0.2,0,0.4,0.2,0.4,0.4v3.4c0,0.2-0.2,0.4-0.4,0.4c0,0,0,0,0,0h-6v17.9C351.7,291.5,351.6,291.7,351.2,291.7
		C351.3,291.7,351.3,291.7,351.2,291.7z M348,290.9h2.8V273c0-0.2,0.2-0.4,0.4-0.4c0,0,0,0,0,0h6v-2.5h-15.7v2.5h6
		c0.2,0,0.4,0.2,0.4,0.4L348,290.9z"/>
	<path class="st2" d="M367.1,291.3v-21.6h3.7v21.6H367.1z"/>
	<path class="st2" d="M370.7,291.7h-3.6c-0.2,0-0.4-0.2-0.4-0.4v-21.6c0-0.2,0.2-0.4,0.4-0.4c0,0,0,0,0,0h3.7c0.2,0,0.4,0.2,0.4,0.4
		c0,0,0,0,0,0v21.6C371.2,291.5,371,291.7,370.7,291.7L370.7,291.7z M367.5,290.9h2.8v-20.8h-2.8V290.9z"/>
	<path class="st2" d="M382.4,291.3v-21.6h13.5v3.4H386v6.4h9v3.2h-9v8.7L382.4,291.3z"/>
	<path class="st2" d="M386,291.7h-3.6c-0.2,0-0.4-0.2-0.4-0.4c0,0,0,0,0,0v-21.6c0-0.2,0.2-0.4,0.4-0.4h13.5c0.2,0,0.4,0.2,0.4,0.4
		c0,0,0,0,0,0v3.4c0,0.2-0.2,0.4-0.4,0.4h-9.5v5.5h8.5c0.2,0,0.4,0.2,0.4,0.4c0,0,0,0,0,0v3.2c0,0.2-0.2,0.4-0.4,0.4h-8.5v8.2
		C386.4,291.5,386.2,291.7,386,291.7z M382.8,290.9h2.8v-8.2c0-0.2,0.2-0.4,0.4-0.4h8.5v-2.4H386c-0.2,0-0.4-0.2-0.4-0.4V273
		c0-0.2,0.2-0.4,0.4-0.4c0,0,0,0,0,0h9.4v-2.5h-12.6L382.8,290.9z"/>
	<path class="st2" d="M406,291.3v-21.6h3.7v21.6H406z"/>
	<path class="st2" d="M409.7,291.7H406c-0.2,0-0.4-0.2-0.4-0.4v-21.6c0-0.2,0.2-0.4,0.4-0.4c0,0,0,0,0,0h3.7c0.2,0,0.4,0.2,0.4,0.4
		c0,0,0,0,0,0v21.6C410.1,291.5,409.9,291.7,409.7,291.7z M406.5,290.9h2.8v-20.8h-2.8V290.9z"/>
	<path class="st2" d="M434.1,282.8l3.8,0.8c-0.2,2.2-1.1,4.3-2.7,5.9c-1.6,1.5-3.7,2.3-5.9,2.2c-2.6,0.1-5-1-6.7-2.9
		c-1.7-1.9-2.6-4.8-2.6-8.6c0-3.5,0.9-6.3,2.7-8.2c1.7-1.9,4.1-2.9,6.6-2.9c2.1-0.1,4.1,0.7,5.7,2.1c1.6,1.5,2.5,3.4,2.7,5.6
		l-3.8,0.6c-0.5-3.3-2.1-4.9-4.6-4.9c-1.6,0-3,0.7-4,1.9c-1.1,1.3-1.6,3.2-1.6,5.9c0,2.6,0.5,4.7,1.6,6.1c0.9,1.3,2.4,2,4,2
		C432.1,288.4,433.7,286.5,434.1,282.8z"/>
	<path class="st2" d="M429.4,292.2c-2.7,0.1-5.2-1-7-3c-1.8-2-2.7-5-2.7-8.9c0-3.6,1-6.5,2.9-8.5c1.8-1.9,4.3-3,6.9-3
		c2.2-0.1,4.4,0.7,6,2.2c1.6,1.5,2.7,3.6,2.8,5.8c0,0.2-0.1,0.4-0.3,0.5l-3.8,0.6c-0.2,0-0.4-0.1-0.5-0.4c-0.5-3.1-1.9-4.6-4.2-4.6
		c-1.4,0-2.8,0.6-3.6,1.8c-1,1.2-1.5,3.1-1.5,5.6s0.5,4.5,1.5,5.8c0.9,1.2,2.2,1.9,3.7,1.8c2.5,0,3.9-1.7,4.3-5.2
		c0-0.1,0.1-0.2,0.2-0.3c0.1-0.1,0.2-0.1,0.3-0.1l3.8,0.8c0.2,0,0.4,0.2,0.3,0.5c-0.2,2.3-1.2,4.5-2.8,6.2
		C434,291.4,431.7,292.3,429.4,292.2z M429.4,269.6c-2.4,0-4.7,1-6.3,2.8c-1.7,1.8-2.6,4.5-2.6,7.9c0,3.7,0.8,6.5,2.5,8.3
		c1.6,1.8,4,2.8,6.4,2.7c2.1,0.1,4.1-0.7,5.6-2.1c1.4-1.4,2.3-3.3,2.5-5.3l-3-0.6c-0.6,3.6-2.3,5.5-5.1,5.5c-1.7,0-3.3-0.8-4.3-2.2
		c-1.1-1.4-1.7-3.5-1.7-6.3s0.6-4.8,1.7-6.1c1-1.3,2.6-2.1,4.3-2.1c2.7,0,4.3,1.6,5,4.9l3-0.5c-0.2-1.9-1.1-3.6-2.5-4.9
		C433.4,270.2,431.4,269.5,429.4,269.6z"/>
	<path class="st2" d="M460,291.3l-1.3-3.7h-8.8l-1.3,3.7h-3.6l7.8-21.6h3l7.8,21.6H460z M454.3,274.9l-3.3,9.5h6.6L454.3,274.9
		L454.3,274.9z"/>
	<path class="st2" d="M463.6,291.7H460c-0.2,0-0.3-0.1-0.4-0.3l-1.2-3.4h-8.1l-1.2,3.4c-0.1,0.2-0.2,0.3-0.4,0.3h-3.6
		c-0.1,0-0.3-0.1-0.3-0.2c-0.1-0.1-0.1-0.3,0-0.4l7.8-21.6c0.1-0.2,0.2-0.3,0.4-0.3h3c0.2,0,0.3,0.1,0.4,0.3l7.8,21.6
		c0,0.1,0,0.3-0.1,0.4C463.9,291.6,463.8,291.7,463.6,291.7z M460.3,290.9h2.7l-7.5-20.8h-2.4l-7.5,20.8h2.7l1.2-3.4
		c0.1-0.2,0.2-0.3,0.4-0.3h8.8c0.2,0,0.3,0.1,0.4,0.3L460.3,290.9z M457.6,284.9H451c-0.1,0-0.3-0.1-0.3-0.2c-0.1-0.1-0.1-0.3,0-0.4
		l3.3-9.5c0.1-0.2,0.2-0.3,0.4-0.3h0c0.2,0,0.3,0.1,0.4,0.3l3.2,9.5c0,0.1,0,0.3-0.1,0.4C457.9,284.8,457.8,284.9,457.6,284.9
		L457.6,284.9z M451.6,284h5.4l-2.6-7.9L451.6,284z"/>
	<path class="st2" d="M474.6,291.3V273h-6.5v-3.4h16.5v3.4h-6.4v18.3L474.6,291.3z"/>
	<path class="st2" d="M478.2,291.7h-3.6c-0.2,0-0.4-0.2-0.4-0.4c0,0,0,0,0,0v-17.9h-6c-0.2,0-0.4-0.2-0.4-0.4v-3.4
		c0-0.2,0.2-0.4,0.4-0.4c0,0,0,0,0,0h16.5c0.2,0,0.4,0.2,0.4,0.4v3.4c0,0.2-0.2,0.4-0.4,0.4c0,0,0,0,0,0h-6v17.9
		C478.7,291.5,478.5,291.7,478.2,291.7C478.3,291.7,478.2,291.7,478.2,291.7z M475,290.9h2.8V273c0-0.2,0.2-0.4,0.4-0.4c0,0,0,0,0,0
		h6v-2.5h-15.7v2.5h6c0.2,0,0.4,0.2,0.4,0.4c0,0,0,0,0,0L475,290.9z"/>
	<path class="st2" d="M494.1,291.3v-21.6h3.6v21.6H494.1z"/>
	<path class="st2" d="M497.7,291.7h-3.6c-0.2,0-0.4-0.2-0.4-0.4c0,0,0,0,0,0v-21.6c0-0.2,0.2-0.4,0.4-0.4h3.6c0.2,0,0.4,0.2,0.4,0.4
		v21.6C498.1,291.5,498,291.7,497.7,291.7C497.7,291.7,497.7,291.7,497.7,291.7z M494.5,290.9h2.8v-20.8h-2.8V290.9z"/>
	<path class="st2" d="M520.9,291.1c-1.1,0.4-2.3,0.6-3.5,0.6c-1.2,0-2.4-0.2-3.5-0.6c-1.1-0.5-2.1-1.1-3-2c-1-1-1.7-2.2-2.1-3.6
		c-0.5-1.7-0.8-3.5-0.8-5.3c0-3.5,0.9-6.3,2.8-8.2c3.3-3.6,8.9-3.9,12.5-0.6c0.2,0.2,0.4,0.4,0.6,0.6c1.8,2,2.7,4.7,2.7,8.2
		c0,1.8-0.2,3.6-0.8,5.3c-0.4,1.3-1.1,2.6-2.1,3.6C523,290,522,290.6,520.9,291.1z M513.4,286.4c1.7,2.2,4.8,2.7,7,1
		c0.4-0.3,0.7-0.6,1-1c1-1.3,1.5-3.3,1.5-6.1c0.1-2-0.4-4.1-1.6-5.8c-1.6-2.2-4.7-2.6-6.9-1c-0.4,0.3-0.7,0.6-1,1
		c-1.2,1.7-1.7,3.7-1.6,5.7C511.9,283,512.4,285.1,513.4,286.4z"/>
	<path class="st2" d="M517.4,292.2c-1.2,0-2.5-0.2-3.6-0.7c-1.2-0.5-2.2-1.2-3.1-2.1c-1-1.1-1.8-2.3-2.2-3.8
		c-0.6-1.7-0.8-3.6-0.8-5.4c0-3.6,1-6.5,2.9-8.5c3.4-3.8,9.3-4.1,13.1-0.7c0.2,0.2,0.5,0.4,0.7,0.7c1.9,2,2.8,4.9,2.8,8.5
		c0,1.8-0.2,3.7-0.8,5.4c-0.4,1.4-1.2,2.7-2.2,3.8c-0.9,0.9-1.9,1.5-3.1,2l0,0C519.9,291.9,518.6,292.2,517.4,292.2z M517.4,269.6
		c-2.4,0-4.7,1-6.3,2.8c-1.8,1.9-2.6,4.5-2.6,7.9c0,1.7,0.2,3.5,0.8,5.1c0.7,2.4,2.5,4.4,4.9,5.3c2.1,0.8,4.5,0.8,6.6,0l0,0
		c1-0.4,2-1.1,2.8-1.9c0.9-1,1.6-2.1,2-3.4c0.5-1.7,0.8-3.4,0.8-5.1c0-3.4-0.9-6.1-2.6-7.9C522,270.6,519.8,269.6,517.4,269.6z
		 M517.4,288.8c-1.7,0-3.3-0.8-4.3-2.1l0,0c-1.1-1.4-1.6-3.5-1.6-6.4c-0.1-2.1,0.4-4.2,1.7-6c1.8-2.4,5.1-2.8,7.5-1
		c0.4,0.3,0.7,0.6,1,1c1.2,1.8,1.8,3.9,1.7,6c0,2.9-0.5,5-1.6,6.4C520.7,288,519.1,288.8,517.4,288.8z M517.4,273
		c-1.4,0-2.8,0.7-3.6,1.8c-1.1,1.6-1.6,3.5-1.5,5.5c0,2.7,0.5,4.6,1.5,5.9l0,0c1.5,2,4.4,2.4,6.4,0.9c0.3-0.2,0.6-0.5,0.9-0.9
		c1-1.2,1.4-3.2,1.4-5.9c0.1-1.9-0.4-3.9-1.5-5.5C520.1,273.7,518.8,273,517.4,273L517.4,273z"/>
	<path class="st2" d="M536.9,291.3v-21.6h3.8l8.6,15.3h0.1v-15.3h3.7v21.6h-3.8l-8.7-15.3h-0.1v15.3H536.9z"/>
	<path class="st2" d="M553,291.7h-3.7c-0.1,0-0.3-0.1-0.4-0.2l-8-14v13.8c0,0.2-0.2,0.4-0.4,0.4c0,0,0,0,0,0h-3.6
		c-0.2,0-0.4-0.2-0.4-0.4c0,0,0,0,0,0v-21.7c0-0.2,0.2-0.4,0.4-0.4h3.8c0.2,0,0.3,0.1,0.4,0.2l7.9,14v-13.8c0-0.2,0.2-0.4,0.4-0.4
		c0,0,0,0,0,0h3.7c0.2,0,0.4,0.2,0.4,0.4c0,0,0,0,0,0v21.6C553.4,291.5,553.2,291.7,553,291.7z M549.5,290.9h3v-20.8h-2.8v14.9
		c0,0.2-0.2,0.4-0.4,0.4c-0.2,0-0.3-0.1-0.4-0.2l-8.5-15.1h-3.1v20.8h2.8V276c0-0.2,0.2-0.4,0.4-0.4c0.2,0,0.3,0.1,0.4,0.2
		L549.5,290.9z"/>
	<rect x="217.3" y="323.3" class="st2" width="379.8" height="2.5"/>
	<rect x="217.3" y="345.8" class="st2" width="379.8" height="2.5"/>
	<rect x="217.3" y="367.7" class="st2" width="379.8" height="2.5"/>
	<rect x="217.3" y="404.3" class="st2" width="234.7" height="2.8"/>
	<rect x="217.3" y="426.5" class="st2" width="234.7" height="2.8"/>
	<rect x="217.3" y="448.5" class="st2" width="234.7" height="2.8"/>
	<path class="st2" d="M219.9,515.8c0.1-1,0.4-1.9,0.9-2.8c0.4-0.9,0.9-1.8,1.4-2.6c1-1.7,2-3.4,3-5c0.5-0.8,0.9-1.7,1.3-2.6
		c0.3-0.9,0.6-1.9,1-2.8l1-2.8c0.2-0.5,0.3-0.9,0.5-1.4c0.2-0.5,0.4-0.9,0.7-1.4c1-1.7,2.2-3.3,3.5-4.8c1.2-1.5,2.3-3.1,3.2-4.8
		c2-3.3,3.9-6.7,5.9-10.1c0.3-0.6,0.8-1,1.3-1.2c0.4-0.1,0.8-0.1,1.2,0.1c0.3,0.2,0.6,0.5,0.7,0.9c0.2,0.6,0.1,1.2-0.2,1.8
		c-0.2,0.5-0.5,0.9-0.7,1.4c-1.1,1.6-2.4,3.2-3.7,4.6c-2.4,3.1-4.9,6.1-7.5,9.1s-5.1,5.9-7.4,9.1c-1.2,1.6-2.5,3-3.8,4.5
		c-0.7,0.7-1.3,1.5-1.9,2.2c-0.3,0.4-0.6,0.8-0.9,1.2c-0.1,0.2-0.3,0.4-0.5,0.6c-0.1,0.1-0.1,0.1-0.2,0.2c0,0.1,0,0,0,0.1l-0.1,0
		c0.2-0.1,0.4-0.2,0.7-0.3l0.7-0.4c0.5-0.3,0.9-0.6,1.4-0.9c0.9-0.6,1.8-1.3,2.7-2c1.8-1.3,3.5-2.7,5.2-4.1c3.4-2.8,6.7-5.7,9.8-8.8
		l1.1-1.2c0.4-0.4,0.8-0.8,1.2-1.2c0.2-0.2,0.5-0.4,0.7-0.5c0.3-0.2,0.6-0.3,1-0.4c0.1,0,0.3,0,0.4,0.1c0.1,0,0.2,0.1,0.3,0.1
		c0.2,0.1,0.4,0.3,0.5,0.5c0.2,0.4,0.2,0.8,0,1.2c-0.3,0.6-0.6,1.1-1,1.5l-0.3,0.3c-0.1,0.1-0.2,0.2-0.2,0.3
		c-0.2,0.2-0.3,0.4-0.4,0.6l-0.8,1.4c-0.2,0.3-0.3,0.5-0.4,0.7c-0.1,0.2-0.2,0.5-0.3,0.7c-0.4,1-0.6,2-0.6,3c-0.1,0.5-0.1,1,0,1.5
		c0,0.2,0.1,0.4,0.2,0.6c0,0.1,0.1,0.1,0,0s-0.1,0,0,0c0.5-0.2,0.9-0.4,1.3-0.6c0.5-0.3,0.9-0.5,1.4-0.8l2.8-1.7
		c0.5-0.3,1-0.6,1.5-0.8s1-0.5,1.4-0.8c0.9-0.5,1.9-1.1,2.8-1.7c1.9-1.2,3.7-2.4,5.7-3.4c2-1,4.1-1.8,6.2-2.5l0.4-0.1
		c0.2,0,0.3-0.1,0.5-0.1c0.4-0.1,0.9,0,1.2,0.2c0.4,0.2,0.6,0.7,0.5,1.1c0,0.1,0,0.1-0.1,0.2c0,0.1-0.1,0.2-0.1,0.3
		c-0.1,0.3-0.3,0.5-0.5,0.8c-0.2,0.2-0.3,0.5-0.5,0.7l-0.2,0.2c-0.1,0.1-0.1,0.1-0.2,0.2c-0.1,0.1-0.2,0.2-0.2,0.2
		c-0.4,0.4-0.7,0.8-1,1.2c-0.7,0.9-1.5,1.8-2.4,2.5c-0.2,0.2-0.5,0.4-0.7,0.5s-0.4,0.3-0.6,0.5c-0.4,0.3-0.8,0.7-1.2,1.1
		c-0.4,0.4-0.7,0.7-1.1,1.1c-0.1,0.1-0.1,0.2-0.1,0.2s0,0,0-0.2s-0.2-0.4-0.3-0.4s-0.1,0-0.1,0c0.2,0,0.5-0.1,0.7-0.2
		c1-0.4,2-0.8,3-1.3c2-0.9,4-1.9,6-2.8l1.5-0.7c0.5-0.2,1-0.5,1.5-0.7c0.4-0.3,0.9-0.6,1.2-1c0.2-0.2,0.3-0.3,0.4-0.5
		c0-0.1,0-0.1,0.1,0s0,0-0.1,0h0c-0.2-0.1-0.5,0-0.7,0.2c-0.2,0.3-0.3,0.6-0.4,0.9c0,0.2-0.1,0.4-0.1,0.5c0,0.2,0,0.3,0,0.5
		c0.1,0.3,0.2,0.6,0.5,0.8c0.5,0.5,1.2,0.2,1.7-0.2c0.3-0.2,0.6-0.5,0.9-0.8c0.3-0.3,0.8-0.5,1.2-0.5c0.4,0,0.8,0.1,1.2,0.3
		c0.3,0.1,0.7,0.2,1.1,0.3c0.8,0.1,1.5,0.2,2.3,0.3c0.8,0.1,1.5,0.1,2.3,0.1c0.8,0,1.5-0.1,2.3-0.3l0,0c0,0,0.1,0,0.1,0
		c0,0,0,0.1,0,0.1c-0.8,0.2-1.5,0.4-2.3,0.4c-0.8,0-1.6,0-2.4,0c-0.8,0-1.6-0.1-2.3-0.2c-0.4-0.1-0.8-0.1-1.2-0.3
		c-0.3-0.2-0.7-0.2-1-0.2c-0.7,0-1.2,0.7-1.8,1.2c-0.3,0.3-0.7,0.5-1.2,0.6c-0.5,0.1-1,0-1.4-0.3c-0.4-0.3-0.6-0.7-0.7-1.2
		c0-0.2,0-0.5,0-0.7c0-0.2,0-0.4,0.1-0.6c0.1-0.4,0.2-0.9,0.5-1.2c0.2-0.2,0.4-0.4,0.7-0.4c0.3-0.1,0.5-0.1,0.8,0h0
		c0.2,0,0.5,0.1,0.6,0.3c0.1,0.1,0.2,0.3,0.2,0.5c0,0.1,0,0.2-0.1,0.3c-0.1,0.3-0.3,0.6-0.6,0.8c-0.4,0.4-0.9,0.8-1.3,1.1
		c-0.5,0.3-1,0.5-1.5,0.8l-1.5,0.7c-2,1-3.9,2-5.9,3c-1,0.5-2,1-3.1,1.4c-0.3,0.1-0.6,0.2-0.9,0.3c-0.2,0-0.3,0-0.5,0
		c-0.1,0-0.2-0.1-0.3-0.2c-0.1-0.1-0.1-0.2-0.2-0.3c0-0.1,0-0.3,0-0.4c0.1-0.2,0.2-0.4,0.3-0.5c0.4-0.5,0.7-0.9,1.2-1.3
		c0.4-0.4,0.8-0.8,1.2-1.2l0.7-0.6l0.6-0.5c0.8-0.7,1.5-1.5,2.2-2.3c0.3-0.5,0.7-0.9,1.1-1.3c0.1-0.1,0.2-0.2,0.3-0.3l0.1-0.1
		l0.1-0.1c0.2-0.2,0.3-0.4,0.5-0.6c0.1-0.2,0.3-0.4,0.4-0.6c0,0,0-0.1,0.1-0.1l0,0c0,0,0,0.1,0,0.1c0,0,0,0.1,0.1,0.1
		c-0.1,0-0.2,0-0.4,0l-0.3,0.1l-0.4,0.1c-2.1,0.7-4.1,1.5-6,2.4c-1.9,1-3.8,2.2-5.6,3.3c-0.9,0.6-1.9,1.2-2.8,1.7
		c-0.5,0.3-1,0.5-1.5,0.8s-0.9,0.5-1.4,0.8l-3,1.7c-0.5,0.3-1,0.6-1.5,0.8c-0.5,0.3-1.1,0.5-1.7,0.7c-0.1,0-0.2,0-0.3,0
		c-0.2,0-0.4,0-0.5-0.1c-0.2-0.1-0.4-0.4-0.5-0.6c-0.1-0.3-0.2-0.7-0.2-1c-0.1-0.6-0.1-1.2,0-1.8c0.1-1.2,0.3-2.3,0.7-3.4
		c0.1-0.3,0.2-0.5,0.4-0.8c0.1-0.3,0.3-0.5,0.5-0.7l0.9-1.4c0.2-0.2,0.3-0.5,0.5-0.7c0.1-0.1,0.2-0.2,0.3-0.3l0.3-0.3
		c0.3-0.4,0.6-0.8,0.8-1.2c0.1-0.1,0.1-0.3,0.1-0.4c0,0,0-0.1-0.1-0.1l-0.1-0.1l0,0c-0.2,0-0.4,0.1-0.5,0.2
		c-0.2,0.1-0.4,0.3-0.6,0.4c-0.4,0.3-0.8,0.7-1.2,1.1c-0.4,0.4-0.8,0.8-1.2,1.2c-3.2,3.1-6.6,5.9-10.1,8.6c-1.7,1.4-3.5,2.7-5.3,4
		c-0.9,0.7-1.8,1.3-2.7,1.9c-0.5,0.3-0.9,0.6-1.4,0.9l-0.7,0.4c-0.3,0.2-0.6,0.3-0.9,0.3h-0.1l-0.1-0.1c-0.1-0.1-0.1-0.2-0.2-0.3
		c0-0.1,0-0.2,0.1-0.3c0.1-0.1,0.2-0.2,0.3-0.3c0.2-0.2,0.3-0.3,0.4-0.5c0.3-0.4,0.6-0.8,0.9-1.2c0.6-0.8,1.3-1.5,1.9-2.2
		c1.3-1.4,2.6-2.9,3.8-4.5c2.3-3.1,4.8-6.2,7.2-9.2s4.9-6.1,7.2-9.2c0.6-0.8,1.3-1.5,1.9-2.3c0.6-0.7,1.2-1.5,1.7-2.3
		c0.5-0.8,1-1.7,0.8-2.3c-0.1-0.3-0.2-0.3-0.4-0.3c-0.3,0.2-0.6,0.4-0.7,0.7c-2,3.4-3.9,6.8-6,10.1c-1,1.7-2.1,3.3-3.4,4.9
		c-1.3,1.5-2.4,3-3.5,4.6c-0.2,0.4-0.5,0.8-0.7,1.2c-0.2,0.4-0.3,0.9-0.5,1.3l-1,2.8c-0.3,0.9-0.7,1.8-1,2.7
		c-0.4,0.9-0.9,1.8-1.4,2.6c-1,1.7-2.1,3.3-3.2,4.9c-0.5,0.8-1,1.7-1.4,2.5c-0.5,0.8-0.8,1.8-1,2.7l0,0
		C220,515.8,220,515.8,219.9,515.8C219.9,515.8,219.9,515.9,219.9,515.8z"/>
	<path class="st2" d="M487.5,410.6h-12.5v-12.5h12.5V410.6z M475.9,409.7h10.8V399h-10.8V409.7z"/>
	<path class="st2" d="M487.5,434.1h-12.5v-12.5h12.5V434.1z M475.9,433.2h10.8v-10.8h-10.8V433.2z"/>
	<path class="st2" d="M487.5,456.1h-12.5v-12.5h12.5V456.1z M475.9,455.2h10.8v-10.8h-10.8V455.2z"/>
	<path class="st5" d="M471.2,400.2c0.9,0,1.9,0.1,2.8,0.4c0.9,0.3,1.8,0.6,2.7,1c1.7,0.8,3.3,1.9,4.8,3.1l-1.3,0.6
		c0.1-2.8,0.5-5.6,1.4-8.3c0.5-1.3,1.1-2.6,1.8-3.8c0.7-1.2,1.7-2.3,2.7-3.1c-0.7,1.1-1.4,2.3-1.9,3.6c-0.5,1.2-0.9,2.5-1.2,3.8
		c-0.3,1.3-0.6,2.6-0.8,3.9s-0.4,2.7-0.4,4l-0.1,1.7l-1.3-1.1c-0.7-0.6-1.4-1.2-2.1-1.7s-1.4-1.1-2.2-1.6
		C474.6,401.6,473,400.8,471.2,400.2z"/>
	<path class="st5" d="M475.5,439.8c0.8,0.5,1.5,1.1,2.1,1.9c0.6,0.7,1.2,1.5,1.7,2.3c0.5,0.8,0.9,1.7,1.3,2.5c0.4,0.9,0.7,1.8,1,2.7
		l-1.5-0.2c0.8-1.2,1.7-2.3,2.7-3.3c1-1,2-2,3.1-2.8c1.1-0.8,2.3-1.6,3.6-2.2c1.3-0.6,2.6-0.9,4-1.1c-1.2,0.5-2.4,1.2-3.6,1.9
		c-1.1,0.8-2.1,1.6-3.1,2.5c-1,0.9-1.9,1.8-2.8,2.8s-1.8,2-2.5,3.1l-1,1.4l-0.5-1.6c-0.2-0.8-0.5-1.7-0.8-2.6s-0.6-1.7-1-2.5
		C477.5,442.8,476.6,441.2,475.5,439.8z"/>
	<path class="st5" d="M473,422.3c0.9,0.2,1.8,0.5,2.7,0.9c0.8,0.5,1.6,1,2.4,1.5c0.7,0.6,1.5,1.2,2.1,1.9c0.7,0.7,1.3,1.3,1.9,2.1
		l-1.5,0.3c0.3-1.4,0.7-2.7,1.3-4c0.5-1.3,1.1-2.6,1.9-3.8c0.7-1.2,1.6-2.3,2.5-3.3c1-1,2.1-1.9,3.3-2.5c-1,1-1.8,2-2.6,3.1
		c-0.7,1.1-1.4,2.3-2,3.5c-0.6,1.2-1.1,2.4-1.6,3.7s-0.9,2.5-1.2,3.8l-0.4,1.7l-1-1.4c-0.5-0.7-1.1-1.4-1.7-2.1s-1.2-1.4-1.8-2
		C476,424.3,474.6,423.2,473,422.3z"/>
	<path class="st2" d="M486.8,184.8c-8.6,0-17-8.3-26.5-17.7S439.9,146.9,426,141c-20.7-8.8-48.3-1.1-95.1,26.6l-0.5-0.8
		c47.1-27.8,74.9-35.5,95.9-26.6c14.1,6,25,16.8,34.6,26.3c11,10.9,19.7,19.5,29,17c13.9-3.7,19.9-23.8,25.2-41.5
		c4.6-15.2,8.5-28.4,16.5-28.9h0.3c6.5,0,12.3,10.1,17.9,19.9c5,8.8,9.8,17,14.1,16.2s5.4-10.3,6.5-20.4
		c1.4-12.6,3.1-26.9,11.4-29.9c5.9-2.1,11.6,2.4,19.5,8.6c5.7,4.6,11.7,8.9,18,12.6c0.3,0.2,27.6,15.9,62.9,15.9h0.6
		c18.9-0.1,41.9-12.5,64.7-34.9c21.2-20.8,50-63.3,62.4-90.8l0.8,0.4c-12.4,27.5-41.2,70.1-62.6,91.1c-23,22.6-46.2,35.1-65.3,35.2
		h-0.6c-35.5,0-63-15.8-63.3-16c-6.3-3.8-12.4-8-18.1-12.7c-8-6.3-13.2-10.4-18.7-8.5c-7.8,2.8-9.4,16.8-10.8,29.1
		c-1.2,10.8-2.3,20.2-7.2,21.1s-9.8-7.6-15-16.6c-5.3-9.3-11.3-19.8-17.4-19.4c-7.4,0.4-11.3,13.3-15.8,28.2
		c-5.4,18-11.5,38.3-25.8,42.1C489.1,184.6,488,184.8,486.8,184.8z"/>
	<polygon class="st6" points="586.5,649.2 575.4,617.2 543.1,627.1 584.4,545.7 627.8,567.9 	"/>
	<polygon class="st6" points="671.4,649.2 682.4,617.2 714.8,627.1 673.4,545.7 630,567.9 	"/>
	<path class="st6" d="M720.1,479.8c0,4.7-5.3,9-6,13.6s3.2,10.3,2,14.7s-7.7,7.1-9.6,11.3s0.2,10.8-2.3,14.7s-9.3,4.7-12.4,8.2
		s-2.8,10.4-6.3,13.4s-10.3,1.8-14.2,4.4s-5.6,9.2-9.8,11.1s-10.3-1.2-14.8,0.2s-7.9,7.2-12.6,7.9s-9.6-4-14.3-4s-9.7,4.7-14.3,4
		s-8.2-6.6-12.6-7.9s-10.6,1.8-14.8-0.2s-5.9-8.6-9.8-11.1s-10.7-1.3-14.2-4.4s-3.3-9.9-6.3-13.4s-9.9-4.2-12.4-8.2
		s-0.3-10.4-2.3-14.7s-8.3-6.8-9.6-11.3s2.6-10.1,2-14.7s-6-8.9-6-13.6s5.3-9,6-13.6s-3.2-10.3-2-14.7s7.7-7.1,9.6-11.3
		s-0.2-10.8,2.3-14.7s9.3-4.7,12.4-8.2s2.8-10.4,6.3-13.4s10.3-1.8,14.2-4.4s5.6-9.2,9.8-11.1s10.3,1.1,14.8-0.2s7.9-7.2,12.6-7.9
		s9.6,4,14.3,4s9.8-4.7,14.3-4s8.2,6.6,12.6,7.9s10.6-1.7,14.8,0.2s5.9,8.6,9.8,11.1s10.7,1.3,14.2,4.4s3.3,9.9,6.3,13.4
		s9.9,4.2,12.4,8.2s0.3,10.4,2.3,14.7s8.3,6.8,9.6,11.3s-2.6,10.1-2,14.7S720.1,475.1,720.1,479.8z"/>
	<circle class="st1" cx="619.7" cy="479.8" r="83.6"/>
	<path class="st6" d="M619.6,554.1c-41,0-74.2-33.2-74.2-74.2c0-41,33.2-74.2,74.2-74.2c41,0,74.2,33.2,74.2,74.2l0,0
		C693.7,520.9,660.5,554.1,619.6,554.1z M619.6,406.7c-40.5,0-73.3,32.8-73.3,73.3s32.8,73.3,73.3,73.3c40.5,0,73.3-32.8,73.3-73.3
		c0,0,0,0,0,0C692.8,439.5,660.1,406.7,619.6,406.7L619.6,406.7z"/>
	<path class="st6" d="M616.2,517.5v-59.1l-18.9,10.2v-15.6l20.2-10.7h15v75.2L616.2,517.5z"/>
</g>
<g id="PERSO">
	<path class="st7" d="M737.9,758.2c0,0-2.7,3.8-10.9,3.8c-2.1-0.1-3.9,1.5-4.1,3.6c0,0.1,0,0.2,0,0.3h20.4v-7.7H737.9z"/>
	<path class="st7" d="M771.6,758.8c0,0-2.5,3.5-10.1,3.5c-2-0.1-3.6,1.4-3.8,3.3c0,0.1,0,0.2,0,0.2h18.9v-7.1H771.6z"/>
	<path class="st2" d="M759,525c0.2,11.2-2.8,13.1-0.2,18.2s7.7,7.7,10.2,7.7c0.9,0,4.5,0.3,4.9,0.6s0,2.7,0,4.2l-0.2,4.7v0.7h7.7
		c-0.8-3.3-1.2-6.6-1.3-10c0.5-1.8,0.9-3.6,1.3-5.4l0.7-16.4l-17.9-4.5l-4.3-1.5l-1.1,1.9"/>
	<path class="st8" d="M774.1,514.9c-1-0.1-5.9,0.4-8,0.6c-1.9,0.2-3.7,0.3-5.6,0.1c-9.1-1.4-9.2,2.3-7,4c2.9,2.2,3.6,5.3,6,5.7
		c8,1.4,16.6,8.8,18.8,5.3c0.6-0.9,1.9-1.1,2.8-0.5c0.1,0.1,0.1,0.1,0.2,0.2c0.7,0.7,0.3,2.8-0.7,4c-2.2,2.7-1.8,11.5,0.8,11.5
		c3.2,0,7.3-2.4,7.3-4.9s2.4-11,0.2-14.3c-1.7-2.5-3.6-4.8-5.9-6.8c-1.3-1.3-2.9-2.1-4.2-3.3S775.9,515.1,774.1,514.9z"/>
	<path class="st8" d="M753.6,622.6c0,0-32.2,53.7-32.2,69.1s16.9,66.5,16.9,66.5h5.1c0,0-5.4-50.4-2.8-58.1c1.8-5.4,13.1-34,13.1-34
		s-2.6,25.6,0,33.3s18,59.4,18,59.4l5,2c0,0,2.6-46,0-56.3c-2-7.8-5.1-15.3-5.1-17.9c0-7.7,11.2-33.5,12.8-38.4
		c2.6-7.7,0-25.6,0-25.6L753.6,622.6z"/>
	<path class="st8" d="M753.6,622.6c-5.1-7.7,0.3-35.8,0-40.9c-0.2-3.7-28.7,4.1-34-0.3c-3.9-3.3-27.4-45.7-27.4-45.7l3.6-1.8
		c0,0,25,31.1,30.7,36.8c1.3,1.3,5.9-0.1,7.4-0.4c4.6-0.9,9.1-2.1,13.7-3.4c4.2-1.2,8.4-2.4,12.6-3.7c1.4-0.4,6.8-1.8,8.3-2.1
		c4.7-0.9,5.3,0,9.6,0.1c2.5,0,4.9-0.9,7.2,0c2.1,1,4.1,2.4,5.8,4.1c3.5,3.5,6.9,7,10.4,10.5c5.1,5.1,13.4,15.8,8.6,21.3
		c-4.9,5.6-25,30.7-25,30.7c-0.3-1.7-0.5-3.4-0.6-5.1c0,0,5.5-8.5,6.9-11.4c2.8-5.8,5.4-11.6,8-17.5c0.9-1.4,0.5-3.2-0.9-4.2
		c-2.7-2.9-5.7-5.6-8.9-7.9l-1.3,16.4c-0.4,5.2-1.6,10.8-2,16c-0.3,3.7-1.2,8.5-1.8,8.5L753.6,622.6z"/>
	<path class="st2" d="M692.2,535.6l-5-3.4c-1.6-1.1-2.2-1.5-2.7-2.7c-0.1-0.3-0.5-2.4,0.2-2.9c1-0.6,5.1,3.5,6.7,3.5
		c0.7,0,0.9-1.3,1.2-2.5c0.3-1.4,1.5-1.8,1.5-0.5c0,4.7,1.7,6.7,1.7,6.7L692.2,535.6z"/>
	<path class="st2" d="M785.4,627.2c0,0-1.5,2.1-3.5,4.9c-1.1,1.6-1.6,2.2-2.8,2.6c-0.3,0.1-2.4,0.4-2.9-0.3c-0.6-1,3.7-5,3.7-6.6
		c0-0.7-1.3-1-2.5-1.3c-1.4-0.4-1.8-1.5-0.4-1.5c4.7,0.2,6.7-1.5,6.7-1.5L785.4,627.2z"/>
</g>
</svg>
