<?xml version="1.0" encoding="utf-8"?>
<!-- Generator: Adobe Illustrator 16.0.0, SVG Export Plug-In . SVG Version: 6.00 Build 0)  -->
<!DOCTYPE svg PUBLIC "-//W3C//DTD SVG 1.1//EN" "http://www.w3.org/Graphics/SVG/1.1/DTD/svg11.dtd">
<svg version="1.1" id="Layer_1" xmlns="http://www.w3.org/2000/svg" xmlns:xlink="http://www.w3.org/1999/xlink" x="0px" y="0px"
	 width="335.986px" height="235.19px" viewBox="0 0 335.986 235.19" enable-background="new 0 0 335.986 235.19"
	 xml:space="preserve">
<g>
	<g>
		<g>
			<rect x="0.396" y="0.054" fill="#85CCC6" width="335.986" height="235.19"/>
		</g>
	</g>
</g>
<g>
	<g>
		<g>
			<rect x="110.002" y="66.13" fill="#FFFFFF" width="12.555" height="2"/>
		</g>
	</g>
	<g>
		<rect x="99.391" y="66.13" fill="#FFFFFF" width="7.076" height="2"/>
	</g>
</g>
<g>
	<g>
		<g>
			<rect x="129.331" y="197.853" fill="#FFFFFF" width="12.554" height="2"/>
		</g>
	</g>
	<g>
		<rect x="118.719" y="197.853" fill="#FFFFFF" width="7.077" height="2"/>
	</g>
</g>
<g>
	<g>
		<g>
			<rect x="261.029" y="109.611" fill="#FFFFFF" width="12.555" height="2"/>
		</g>
	</g>
	<g>
		<rect x="250.418" y="109.611" fill="#FFFFFF" width="7.076" height="2"/>
	</g>
</g>
<g>
	<g>
		<g>
			<rect x="80.128" y="55.532" fill="#FFFFFF" width="16.863" height="2"/>
		</g>
	</g>
	<g>
		<rect x="101.742" y="55.532" fill="#FFFFFF" width="9.505" height="2"/>
	</g>
</g>
<g>
	<g>
		<g>
			<rect x="200.451" y="177.049" fill="#FFFFFF" width="16.863" height="2"/>
		</g>
	</g>
	<g>
		<rect x="222.066" y="177.049" fill="#FFFFFF" width="9.504" height="2"/>
	</g>
</g>
<g>
	<path fill="#FFFFFF" d="M77.106,43.361h-1.131v-7.509H77.6l1.055,5.394l1.012-5.394h1.561v7.509h-1.132v-4.719l-0.981,4.719h-0.91
		l-1.097-4.706V43.361z"/>
	<path fill="#FFFFFF" d="M82.239,43.361v-7.509h3.221v1.138h-2.09v2.048h1.527v1.138H83.37v2.048h2.09v1.138H82.239z"/>
	<path fill="#FFFFFF" d="M89.795,41.565c0,0.494-0.174,0.918-0.521,1.269c-0.347,0.352-0.767,0.527-1.257,0.527h-1.778v-7.509h1.778
		c0.494,0,0.915,0.176,1.26,0.527c0.346,0.351,0.519,0.771,0.519,1.263V41.565z M87.369,42.241h0.683
		c0.18,0,0.332-0.064,0.455-0.194c0.124-0.13,0.187-0.282,0.187-0.458v-3.928c0-0.18-0.063-0.334-0.189-0.461
		c-0.125-0.128-0.276-0.192-0.452-0.192h-0.683V42.241z"/>
	<path fill="#FFFFFF" d="M91.92,43.361h-1.131v-7.503h1.131V43.361z"/>
	<path fill="#FFFFFF" d="M94.32,41.637l-0.275,1.725h-1.178l1.275-7.503h1.557l1.257,7.503h-1.189l-0.265-1.725H94.32z
		 M94.915,37.577l-0.42,2.958h0.839L94.915,37.577z"/>
	<path fill="#FFFFFF" d="M100.423,43.361h-1.131v-7.509h1.624l1.055,5.394l1.012-5.394h1.561v7.509h-1.132v-4.719l-0.981,4.719
		h-0.91l-1.097-4.706V43.361z"/>
	<path fill="#FFFFFF" d="M106.942,41.637l-0.275,1.725h-1.178l1.275-7.503h1.557l1.257,7.503h-1.189l-0.265-1.725H106.942z
		 M107.537,37.577l-0.42,2.958h0.839L107.537,37.577z"/>
	<path fill="#FFFFFF" d="M112.315,35.858c0.631,0,1.094,0.174,1.389,0.521c0.26,0.303,0.39,0.727,0.39,1.269v1.09
		c0,0.531-0.202,0.98-0.604,1.348l0.838,3.275h-1.224l-0.687-2.826c-0.032,0-0.065,0-0.102,0h-0.653v2.826h-1.131v-7.503H112.315z
		 M112.992,37.667c0-0.436-0.216-0.653-0.647-0.653h-0.683v2.401h0.683c0.18,0,0.333-0.063,0.459-0.191
		c0.125-0.128,0.188-0.281,0.188-0.461V37.667z"/>
	<path fill="#FFFFFF" d="M116.428,40.981v2.38h-1.131v-7.509h1.131v2.677l1.384-2.677h1.206l-1.549,3.062l1.816,4.446h-1.33
		l-1.188-3.049L116.428,40.981z"/>
	<path fill="#FFFFFF" d="M120.207,43.361v-7.509h3.221v1.138h-2.09v2.048h1.527v1.138h-1.527v2.048h2.09v1.138H120.207z"/>
	<path fill="#FFFFFF" d="M125.41,36.996h-1.203v-1.138h3.532v1.138h-1.197v6.365h-1.132V36.996z"/>
	<path fill="#FFFFFF" d="M129.781,43.361h-1.131v-7.503h1.131V43.361z"/>
	<path fill="#FFFFFF" d="M132.064,35.853l1.502,5.046v-5.046h1.131v7.509h-1.215l-1.558-4.809v4.809h-1.131v-7.509H132.064z"/>
	<path fill="#FFFFFF" d="M137.487,43.457c-0.499,0-0.923-0.176-1.272-0.526c-0.35-0.352-0.523-0.772-0.523-1.264v-4.096
		c0-0.499,0.175-0.924,0.526-1.272c0.352-0.35,0.774-0.524,1.27-0.524c0.499,0,0.922,0.176,1.27,0.527s0.521,0.774,0.521,1.27v0.856
		h-1.173v-0.881c0-0.18-0.064-0.333-0.192-0.461c-0.127-0.128-0.281-0.191-0.461-0.191s-0.332,0.063-0.458,0.191
		s-0.188,0.281-0.188,0.461v4.107c0,0.18,0.062,0.333,0.188,0.459c0.126,0.125,0.278,0.188,0.458,0.188s0.334-0.062,0.461-0.188
		c0.128-0.125,0.192-0.277,0.192-0.457v-1.475h-0.629v-1.138h1.802v2.623c0,0.499-0.176,0.922-0.526,1.27
		C138.399,43.283,137.979,43.457,137.487,43.457z"/>
</g>
<g>
	<path fill="#FFFFFF" d="M175.829,197.128l-0.275,1.725h-1.178l1.275-7.503h1.557l1.257,7.503h-1.189l-0.265-1.725H175.829z
		 M176.424,193.068l-0.42,2.958h0.839L176.424,193.068z"/>
	<path fill="#FFFFFF" d="M181.202,191.35c0.551,0,0.99,0.174,1.317,0.521c0.303,0.331,0.455,0.754,0.455,1.269v1.09
		c0,0.495-0.173,0.919-0.519,1.27c-0.345,0.352-0.763,0.527-1.254,0.527h-0.653v2.826h-1.131v-7.503H181.202z M181.879,193.158
		c0-0.195-0.06-0.354-0.177-0.474c-0.118-0.119-0.274-0.18-0.471-0.18h-0.683v2.401h0.683c0.18,0,0.333-0.063,0.459-0.191
		c0.125-0.128,0.188-0.281,0.188-0.461V193.158z"/>
	<path fill="#FFFFFF" d="M185.663,191.35c0.551,0,0.99,0.174,1.317,0.521c0.303,0.331,0.455,0.754,0.455,1.269v1.09
		c0,0.495-0.173,0.919-0.519,1.27c-0.345,0.352-0.763,0.527-1.254,0.527h-0.653v2.826h-1.131v-7.503H185.663z M186.34,193.158
		c0-0.195-0.06-0.354-0.177-0.474c-0.118-0.119-0.274-0.18-0.471-0.18h-0.683v2.401h0.683c0.18,0,0.333-0.063,0.459-0.191
		c0.125-0.128,0.188-0.281,0.188-0.461V193.158z"/>
	<path fill="#FFFFFF" d="M191.555,191.35c0.551,0,0.99,0.174,1.317,0.521c0.303,0.331,0.455,0.754,0.455,1.269v1.09
		c0,0.495-0.173,0.919-0.519,1.27c-0.345,0.352-0.763,0.527-1.254,0.527h-0.653v2.826h-1.131v-7.503H191.555z M192.231,193.158
		c0-0.195-0.06-0.354-0.177-0.474c-0.118-0.119-0.274-0.18-0.471-0.18h-0.683v2.401h0.683c0.18,0,0.333-0.063,0.459-0.191
		c0.125-0.128,0.188-0.281,0.188-0.461V193.158z"/>
	<path fill="#FFFFFF" d="M196.016,191.35c0.631,0,1.094,0.174,1.389,0.521c0.26,0.303,0.39,0.727,0.39,1.269v1.09
		c0,0.531-0.202,0.98-0.604,1.348l0.838,3.275h-1.224l-0.687-2.826c-0.032,0-0.065,0-0.102,0h-0.653v2.826h-1.131v-7.503H196.016z
		 M196.692,193.158c0-0.436-0.216-0.653-0.647-0.653h-0.683v2.401h0.683c0.18,0,0.333-0.063,0.459-0.191
		c0.125-0.128,0.188-0.281,0.188-0.461V193.158z"/>
	<path fill="#FFFFFF" d="M200.596,191.254c0.499,0,0.923,0.176,1.272,0.527c0.35,0.351,0.523,0.774,0.523,1.269v4.096
		c0,0.5-0.176,0.924-0.526,1.272c-0.352,0.35-0.774,0.524-1.27,0.524c-0.499,0-0.922-0.176-1.27-0.527
		c-0.348-0.351-0.521-0.774-0.521-1.27v-4.096c0-0.498,0.175-0.923,0.526-1.272C199.684,191.429,200.104,191.254,200.596,191.254z
		 M201.212,193.026c0-0.18-0.062-0.332-0.188-0.458c-0.125-0.126-0.278-0.188-0.458-0.188s-0.333,0.062-0.461,0.188
		s-0.191,0.278-0.191,0.458v4.107c0,0.18,0.063,0.333,0.191,0.458c0.128,0.126,0.281,0.188,0.461,0.188s0.333-0.062,0.458-0.188
		c0.126-0.125,0.188-0.278,0.188-0.458V193.026z"/>
	<path fill="#FFFFFF" d="M205.164,198.948c-0.499,0-0.923-0.176-1.272-0.526c-0.35-0.352-0.523-0.772-0.523-1.264v-4.096
		c0-0.499,0.175-0.924,0.526-1.272c0.352-0.35,0.774-0.524,1.27-0.524c0.499,0,0.922,0.176,1.27,0.527s0.521,0.774,0.521,1.27v0.856
		h-1.173v-0.881c0-0.18-0.064-0.333-0.192-0.461c-0.127-0.128-0.281-0.191-0.461-0.191s-0.332,0.063-0.458,0.191
		s-0.188,0.281-0.188,0.461v4.107c0,0.18,0.062,0.333,0.188,0.459c0.126,0.125,0.278,0.188,0.458,0.188s0.334-0.062,0.461-0.188
		c0.128-0.125,0.192-0.277,0.192-0.457v-1.475h-0.629v-1.138h1.802v2.623c0,0.499-0.176,0.922-0.526,1.27
		C206.076,198.774,205.655,198.948,205.164,198.948z"/>
	<path fill="#FFFFFF" d="M209.721,191.35c0.631,0,1.094,0.174,1.389,0.521c0.26,0.303,0.39,0.727,0.39,1.269v1.09
		c0,0.531-0.202,0.98-0.604,1.348l0.838,3.275h-1.224l-0.687-2.826c-0.032,0-0.065,0-0.102,0h-0.653v2.826h-1.131v-7.503H209.721z
		 M210.397,193.158c0-0.436-0.216-0.653-0.647-0.653h-0.683v2.401h0.683c0.18,0,0.333-0.063,0.459-0.191
		c0.125-0.128,0.188-0.281,0.188-0.461V193.158z"/>
	<path fill="#FFFFFF" d="M214.097,197.128l-0.275,1.725h-1.178l1.275-7.503h1.557l1.257,7.503h-1.189l-0.265-1.725H214.097z
		 M214.691,193.068l-0.42,2.958h0.839L214.691,193.068z"/>
	<path fill="#FFFFFF" d="M218.816,198.853h-1.131v-7.509h1.624l1.055,5.394l1.012-5.394h1.561v7.509h-1.132v-4.719l-0.981,4.719
		h-0.91l-1.097-4.706V198.853z"/>
	<path fill="#FFFFFF" d="M225.079,198.853h-1.131v-7.509h1.624l1.055,5.394l1.012-5.394h1.561v7.509h-1.132v-4.719l-0.981,4.719
		h-0.91l-1.097-4.706V198.853z"/>
	<path fill="#FFFFFF" d="M230.212,198.853v-7.509h3.221v1.138h-2.09v2.048h1.527v1.138h-1.527v2.048h2.09v1.138H230.212z"/>
	<path fill="#FFFFFF" d="M235.996,191.35c0.631,0,1.094,0.174,1.389,0.521c0.26,0.303,0.39,0.727,0.39,1.269v1.09
		c0,0.531-0.202,0.98-0.604,1.348l0.838,3.275h-1.224l-0.687-2.826c-0.032,0-0.065,0-0.102,0h-0.653v2.826h-1.131v-7.503H235.996z
		 M236.673,193.158c0-0.436-0.216-0.653-0.647-0.653h-0.683v2.401h0.683c0.18,0,0.333-0.063,0.459-0.191
		c0.125-0.128,0.188-0.281,0.188-0.461V193.158z"/>
</g>
<g>
	<path fill="#FFFFFF" d="M145.48,48.453H71.045V31.416h74.436V48.453z M72.045,47.453h72.436V32.416H72.045V47.453z"/>
</g>
<g>
	<path fill="#FFFFFF" d="M244.426,203.519H168.99v-17.037h75.436V203.519z M169.99,202.519h73.436v-15.037H169.99V202.519z"/>
</g>
<g>
	<path fill="#FFFFFF" d="M277.678,215.062h-2.98v-2h0.98v-1.02h2V215.062z M270.697,215.062h-4v-2h4V215.062z M262.697,215.062h-4
		v-2h4V215.062z M254.697,215.062h-4v-2h4V215.062z M246.697,215.062h-4v-2h4V215.062z M238.697,215.062h-4v-2h4V215.062z
		 M230.697,215.062h-4v-2h4V215.062z M222.697,215.062h-4v-2h4V215.062z M214.697,215.062h-4v-2h4V215.062z M206.697,215.062h-4v-2
		h4V215.062z M198.697,215.062h-4v-2h4V215.062z M190.697,215.062h-4v-2h4V215.062z M182.697,215.062h-4v-2h4V215.062z
		 M174.697,215.062h-4v-2h4V215.062z M166.697,215.062h-4v-2h4V215.062z M158.697,215.062h-4v-2h4V215.062z M150.697,215.062h-4v-2
		h4V215.062z M142.697,215.062h-4v-2h4V215.062z M134.697,215.062h-4v-2h4V215.062z M126.697,215.062h-4v-2h4V215.062z
		 M118.697,215.062h-4v-2h4V215.062z M110.697,215.062h-4v-2h4V215.062z M102.697,215.062h-4v-2h4V215.062z M94.697,215.062h-4v-2h4
		V215.062z M86.697,215.062h-4v-2h4V215.062z M78.697,215.062h-4v-2h4V215.062z M70.697,215.062h-4v-2h4V215.062z M62.697,215.062
		h-4v-2h4V215.062z M58.842,210.917h-2v-4h2V210.917z M277.678,208.042h-2v-4h2V208.042z M58.842,202.917h-2v-4h2V202.917z
		 M277.678,200.042h-2v-4h2V200.042z M58.842,194.917h-2v-4h2V194.917z M277.678,192.042h-2v-4h2V192.042z M58.842,186.917h-2v-4h2
		V186.917z M277.678,184.042h-2v-4h2V184.042z M58.842,178.917h-2v-4h2V178.917z M277.678,176.042h-2v-4h2V176.042z M58.842,170.917
		h-2v-4h2V170.917z M277.678,168.042h-2v-4h2V168.042z M58.842,162.917h-2v-3.999h2.001L58.842,162.917z M277.678,160.042h-2v-4h2
		V160.042z M145.843,159.918h-4v-2h4V159.918z M137.843,159.918h-4v-2h4V159.918z M129.843,159.918h-4v-2h4V159.918z
		 M121.843,159.918h-4v-2h4V159.918z M113.843,159.918h-4v-2h4V159.918z M105.843,159.918h-4v-2h4V159.918z M97.843,159.918h-4v-2h4
		V159.918z M89.843,159.918h-4v-2h4V159.918z M81.843,159.918h-4v-2h4V159.918z M73.843,159.918h-4v-2h4V159.918z M65.843,159.918
		h-4v-2h4V159.918z M277.678,152.042h-2v-4h2V152.042z M274.72,147h-4v-2h4V147z M266.72,147h-4v-2h4V147z M258.72,147h-4v-2h4V147z
		 M250.72,147h-4v-2h4V147z M242.72,147h-4v-2h4V147z M234.72,147h-4v-2h4V147z M226.72,147h-4v-2h4V147z M218.72,147h-4v-2h4V147z
		 M210.72,147h-4v-2h4V147z M202.72,147h-1.384v-4.616h2V146h-0.616V147z M203.336,138.384h-2v-4h2V138.384z M203.336,130.384h-2v-4
		h2V130.384z M203.336,122.384h-2v-4h2V122.384z M203.336,114.384h-2v-4h2V114.384z M203.336,106.384h-2v-4h2V106.384z
		 M115.316,105.519h-2v-4h2V105.519z M203.336,98.384h-2v-4h2V98.384z M115.316,97.519h-2v-4h2V97.519z M203.336,90.384h-2v-4h2
		V90.384z M115.316,89.519h-2v-4h2V89.519z M110.837,85.998h-4v-2h4V85.998z M102.837,85.998h-4v-2h4V85.998z M94.837,85.998h-4v-2
		h4V85.998z M86.837,85.998h-4v-2h4V85.998z M78.837,85.998h-4v-2h4V85.998z M70.837,85.998h-4v-2h4V85.998z M62.837,85.998h-4v-2h4
		V85.998z M203.336,82.384h-2v-4h2V82.384z M59.209,81.626h-2v-4h2V81.626z M203.336,74.384h-2v-4h2V74.384z M59.209,73.626h-2v-4h2
		V73.626z M203.336,66.384h-2v-3.888h2.112v2h-0.112V66.384z M59.209,65.626h-2v-4h2V65.626z M275.448,64.496h-4v-2h4V64.496z
		 M267.448,64.496h-4v-2h4V64.496z M259.448,64.496h-4v-2h4V64.496z M251.448,64.496h-4v-2h4V64.496z M243.448,64.496h-4v-2h4
		V64.496z M235.448,64.496h-4v-2h4V64.496z M227.448,64.496h-4v-2h4V64.496z M219.448,64.496h-4v-2h4V64.496z M211.448,64.496h-4v-2
		h4V64.496z M277.678,60.726h-2v-4h2V60.726z M59.209,57.626h-2v-4h2V57.626z M277.678,52.726h-2v-4h2V52.726z M59.209,49.626h-2v-4
		h2V49.626z M277.678,44.726h-2v-4h2V44.726z M59.209,41.626h-2v-4h2V41.626z M277.678,36.726h-2v-4h2V36.726z M59.209,33.626h-2v-4
		h2V33.626z M277.678,28.726h-2v-4h2V28.726z M59.209,25.626h-2V21.41h1.784v1h0.216V25.626z M274.993,23.41h-4v-2h4V23.41z
		 M266.993,23.41h-4v-2h4V23.41z M258.993,23.41h-4v-2h4V23.41z M250.993,23.41h-4v-2h4V23.41z M242.993,23.41h-4v-2h4V23.41z
		 M234.993,23.41h-4v-2h4V23.41z M226.993,23.41h-4v-2h4V23.41z M218.993,23.41h-4v-2h4V23.41z M210.993,23.41h-4v-2h4V23.41z
		 M202.993,23.41h-4v-2h4V23.41z M194.993,23.41h-4v-2h4V23.41z M186.993,23.41h-4v-2h4V23.41z M178.993,23.41h-4v-2h4V23.41z
		 M170.993,23.41h-4v-2h4V23.41z M162.993,23.41h-4v-2h4V23.41z M154.993,23.41h-4v-2h4V23.41z M146.993,23.41h-4v-2h4V23.41z
		 M138.993,23.41h-4v-2h4V23.41z M130.993,23.41h-4v-2h4V23.41z M122.993,23.41h-4v-2h4V23.41z M114.993,23.41h-4v-2h4V23.41z
		 M106.993,23.41h-4v-2h4V23.41z M98.993,23.41h-4v-2h4V23.41z M90.993,23.41h-4v-2h4V23.41z M82.993,23.41h-4v-2h4V23.41z
		 M74.993,23.41h-4v-2h4V23.41z M66.993,23.41h-4v-2h4V23.41z"/>
</g>
<g opacity="0.25">
	<line fill="#64798A" x1="170.745" y1="148.292" x2="146.32" y2="148.292"/>
</g>
<g>
	<path fill="#2C465F" d="M207.854,156.712c0,3.269-2.65,5.916-5.915,5.916h-62.384c-3.268,0-5.916-2.647-5.916-5.916V65.648
		c0-3.271,2.648-5.917,5.916-5.917h62.384c3.265,0,5.915,2.646,5.915,5.917V156.712z"/>
</g>
<g>
	<rect x="138.768" y="70.895" fill="#F4F8F7" width="63.955" height="80.57"/>
</g>
<g>
	<path fill="#A7A9AC" d="M179.496,156.259c0,0.916-0.744,1.659-1.66,1.659h-14.181c-0.917,0-1.659-0.743-1.659-1.659l0,0
		c0-0.917,0.742-1.66,1.659-1.66h14.181C178.752,154.599,179.496,155.342,179.496,156.259L179.496,156.259z"/>
</g>
<g>
	<rect x="144.98" y="76.682" fill="#30677A" width="13.555" height="21.651"/>
</g>
<g>
	<rect x="161.996" y="76.682" fill="#0195DF" width="35.979" height="3.739"/>
</g>
<g>
	<rect x="161.996" y="85.972" fill="#0195DF" width="35.979" height="3.736"/>
</g>
<g>
	<rect x="161.996" y="95.256" fill="#0195DF" width="35.979" height="3.736"/>
</g>
<g>
	<rect x="144.98" y="102.734" fill="#2C465F" width="52.994" height="8.611"/>
</g>
<g>
	<g>
		<rect x="150.782" y="137.111" fill="#30677A" width="6.241" height="7.833"/>
	</g>
	<g>
		<rect x="160.145" y="117.9" fill="#30677A" width="6.24" height="27.044"/>
	</g>
	<g>
		<rect x="169.504" y="124.577" fill="#30677A" width="6.239" height="20.367"/>
	</g>
	<g>
		<rect x="178.864" y="131.422" fill="#30677A" width="6.239" height="13.522"/>
	</g>
	<g>
		<rect x="188.227" y="121.713" fill="#30677A" width="6.238" height="23.231"/>
	</g>
</g>
<g>
	<g>
		<path fill="#2C465F" d="M231.266,134.397c-0.008,1.824-1.879,3.295-4.176,3.284l-4.938-0.027
			c-2.301-0.012-4.154-1.499-4.146-3.323l0.097-30.577c0.01-1.824,1.879-3.294,4.178-3.282l4.939,0.025
			c2.299,0.012,4.152,1.501,4.144,3.326L231.266,134.397z"/>
	</g>
	<g id="XMLID_28_">
		<g>
			<path fill="#2C465F" d="M206.953,40.323c-10.018,10.171-9.992,26.494,0.056,36.388c3.94,3.882,8.848,6.199,13.962,6.976
				l0.021,49.896c0,1.029,0.422,1.962,1.102,2.631c0.668,0.659,1.584,1.063,2.596,1.062c2.043-0.004,3.695-1.657,3.695-3.699
				l-0.023-49.832c5.502-0.751,10.824-3.26,15.032-7.533c10.017-10.171,9.991-26.495-0.058-36.39
				C233.289,29.928,216.969,30.152,206.953,40.323z M211.633,44.932c7.475-7.589,19.627-7.781,27.094-0.429
				c7.467,7.352,7.459,19.509-0.016,27.099c-7.473,7.588-19.627,7.78-27.093,0.428C204.154,64.678,204.158,52.523,211.633,44.932z"
				/>
		</g>
	</g>
	<g>
		<circle fill="#F4F8F7" cx="225.476" cy="58.17" r="21.236"/>
	</g>
	<g>
		<circle fill="#64B6DF" cx="231.977" cy="48.552" r="6.122"/>
	</g>
	<g>
		<circle fill="#64B6DF" cx="225.77" cy="58.248" r="3.05"/>
	</g>
</g>
<g>
	<g>
		<rect x="86.819" y="131.534" fill="#BDC3C7" width="68" height="56"/>
	</g>
	<g>
		<rect x="86.819" y="129.534" fill="#F4F8F7" width="68" height="54"/>
	</g>
	<g>
		<rect x="86.819" y="129.534" fill="#0195DF" width="68" height="12"/>
	</g>
	<g>
		<circle fill="#F4F8F7" cx="121.473" cy="135.375" r="2.205"/>
	</g>
</g>
<g>
	<g>
		<g>
			<g>
				<path fill="#2C465F" d="M258.385,127.795c-1.689-0.002-3.066,1.373-3.066,3.062l-0.018,51.691
					c-0.002,1.69,1.373,3.065,3.062,3.066l36.604,0.013c1.69,0,3.064-1.374,3.064-3.063l0.021-51.692
					c0-1.69-1.375-3.063-3.063-3.066L258.385,127.795z"/>
			</g>
		</g>
	</g>
</g>
<g>
	<g>
		<g>
			<path fill="#D8D8D8" d="M267.209,154.166l-6.201-0.003c-0.857-0.001-1.561-0.703-1.559-1.56v-2.103
				c0.002-0.857,0.703-1.561,1.559-1.561l6.203,0.002c0.859,0.003,1.562,0.703,1.559,1.562v2.099
				C268.77,153.464,268.066,154.167,267.209,154.166z"/>
		</g>
		<g>
			<path fill="#D8D8D8" d="M279.824,154.172l-6.205-0.001c-0.857-0.003-1.561-0.706-1.559-1.563l0.002-2.102
				c0-0.86,0.701-1.56,1.559-1.561l6.203,0.005c0.859,0,1.561,0.7,1.561,1.557v2.105C281.385,153.47,280.68,154.172,279.824,154.172
				z"/>
		</g>
		<g>
			<path fill="#0195DF" d="M292.438,154.176l-6.205-0.003c-0.859,0-1.561-0.703-1.561-1.56l0.002-2.104
				c0-0.856,0.702-1.559,1.562-1.559l6.198,0.001c0.86,0.001,1.562,0.703,1.562,1.561v2.102
				C293.994,153.475,293.295,154.176,292.438,154.176z"/>
		</g>
	</g>
	<g>
		<g>
			<path fill="#F4F4F4" d="M267.209,163.048l-6.207-0.003c-0.855,0-1.555-0.702-1.555-1.56v-2.103c0-0.858,0.703-1.561,1.561-1.561
				l6.201,0.002c0.857,0,1.561,0.701,1.561,1.562l-0.002,2.104C268.768,162.348,268.064,163.047,267.209,163.048z"/>
		</g>
		<g>
			<path fill="#F4F4F4" d="M279.819,163.053l-6.204-0.002c-0.856-0.001-1.559-0.702-1.557-1.561v-2.102
				c0-0.859,0.7-1.561,1.561-1.561l6.203,0.001c0.855,0.002,1.56,0.703,1.558,1.562l0.002,2.101
				C281.382,162.351,280.678,163.053,279.819,163.053z"/>
		</g>
		<g>
			<path fill="#0195DF" d="M292.434,163.056l-6.204-0.001c-0.855,0-1.559-0.703-1.559-1.562l0.002-2.101
				c0-0.858,0.703-1.559,1.56-1.559h6.199c0.859,0.001,1.562,0.703,1.562,1.562v2.104
				C293.992,162.355,293.29,163.058,292.434,163.056z"/>
		</g>
	</g>
	<g>
		<g>
			<path fill="#F4F4F4" d="M267.205,171.931l-6.203-0.005c-0.857,0.001-1.561-0.702-1.561-1.562v-2.099
				c0-0.86,0.705-1.562,1.564-1.562l6.201,0.002c0.857,0.001,1.559,0.704,1.559,1.564l0.002,2.099
				C268.766,171.229,268.062,171.931,267.205,171.931z"/>
		</g>
		<g>
			<path fill="#F4F4F4" d="M279.816,171.934l-6.205-0.002c-0.855,0-1.559-0.702-1.559-1.561v-2.102c0-0.858,0.703-1.562,1.562-1.56
				l6.204,0.001c0.858,0.001,1.559,0.703,1.559,1.56v2.104C281.378,171.233,280.676,171.934,279.816,171.934z"/>
		</g>
		<g>
			<path fill="#F4F4F4" d="M292.429,171.938l-6.202-0.001c-0.858,0-1.56-0.702-1.56-1.562l0.001-2.103
				c-0.001-0.856,0.703-1.56,1.562-1.559h6.202c0.858,0,1.561,0.707,1.559,1.563v2.103
				C293.992,171.235,293.287,171.938,292.429,171.938z"/>
		</g>
	</g>
	<g>
		<g>
			<path fill="#F4F4F4" d="M267.201,180.812L261,180.808c-0.859,0.001-1.562-0.702-1.562-1.56v-2.102
				c0.002-0.86,0.705-1.563,1.562-1.562l6.201,0.005c0.861-0.001,1.559,0.702,1.559,1.559l0.004,2.103
				C268.76,180.109,268.059,180.812,267.201,180.812z"/>
		</g>
		<g>
			<path fill="#F4F4F4" d="M279.812,180.814l-6.2-0.001c-0.858,0-1.561-0.702-1.561-1.562l0.002-2.1c0-0.86,0.701-1.561,1.562-1.561
				h6.205c0.853,0,1.556,0.703,1.556,1.561l-0.003,2.103C281.375,180.113,280.672,180.817,279.812,180.814z"/>
		</g>
		<g>
			<path fill="#F4F4F4" d="M292.426,180.819l-6.202-0.001c-0.857-0.001-1.561-0.705-1.559-1.562l-0.002-2.104
				c0-0.857,0.703-1.561,1.563-1.56l6.202,0.004c0.858,0.001,1.562,0.704,1.562,1.561l-0.003,2.103
				C293.987,180.119,293.287,180.822,292.426,180.819z"/>
		</g>
	</g>
</g>
<g>
	<g>
		<path fill="#2C2E3A" d="M294.041,145.107l-34.723-0.012c-0.801,0-1.455-0.655-1.455-1.455l0.002-9.873
			c0.002-0.799,0.654-1.453,1.457-1.453l34.727,0.013c0.799,0,1.451,0.654,1.453,1.454l-0.004,9.872
			C295.498,144.454,294.842,145.108,294.041,145.107z"/>
	</g>
	<g>
		<path fill="#F4F8F7" d="M259.332,132.658c-0.617,0-1.121,0.502-1.121,1.121l-0.002,9.852c-0.002,0.619,0.502,1.121,1.12,1.12
			l34.702,0.013c0.618,0.001,1.121-0.502,1.119-1.12l0.006-9.853c0-0.618-0.502-1.119-1.121-1.12L259.332,132.658z"/>
	</g>
</g>
<g>
	<circle fill="#0195DF" cx="288.452" cy="71.664" r="28.525"/>
</g>
<g>
	<g>
		<defs>
			<path id="SVGID_1_" d="M288.5,61.859c-2.92,0-8.655,1.621-8.655,8.098c0,4.864,4.865,8.09,4.865,11.344c0,2.084,0,3.244,0,3.244
				l2.329,3.223h2.924l2.438-3.223c0,0,0-1.674,0-3.244c0-3.237,4.906-6.479,4.906-11.344C297.307,63.48,291.42,61.859,288.5,61.859
				z"/>
		</defs>
		<use xlink:href="#SVGID_1_"  overflow="visible" fill-rule="evenodd" clip-rule="evenodd" fill="#F4F8F7"/>
		<clipPath id="SVGID_2_">
			<use xlink:href="#SVGID_1_"  overflow="visible"/>
		</clipPath>
		<g clip-path="url(#SVGID_2_)">
			<path fill-rule="evenodd" clip-rule="evenodd" fill="#F4F8F7" d="M288.5,61.859c-2.92,0-8.759,1.621-8.759,8.098
				c0,4.864,4.761,8.09,4.761,11.344c0,2.084,0,3.244,0,3.244l2.537,3.237h2.924l2.346-3.237c0,0,0-1.674,0-3.244
				c0-3.237,4.951-6.479,4.951-11.344C297.26,63.48,291.42,61.859,288.5,61.859z"/>
		</g>
		<g clip-path="url(#SVGID_2_)">
			<rect x="283.739" y="80.952" fill-rule="evenodd" clip-rule="evenodd" fill="#F4F8F7" width="8.761" height="7.188"/>
		</g>
	</g>
	<g>
		<g>
			<path fill="#F4F8F7" d="M288.904,59.28c-0.291,0-0.701-0.236-0.701-0.528v-4.439c0-0.293,0.41-0.528,0.701-0.528
				c0.293,0,0.699,0.235,0.699,0.528v4.439C289.604,59.044,289.197,59.28,288.904,59.28z"/>
		</g>
		<g>
			<path fill="#F4F8F7" d="M297.314,61.703c-0.133,0-0.27-0.053-0.37-0.156c-0.208-0.206-0.208-0.54,0-0.746l3.137-3.141
				c0.206-0.205,0.544-0.205,0.748,0c0.208,0.206,0.208,0.542,0,0.747l-3.14,3.14C297.586,61.65,297.451,61.703,297.314,61.703z"/>
		</g>
		<g>
			<path fill="#F4F8F7" d="M305.111,69.939h-4.441c-0.293,0-0.527-0.232-0.527-0.524c0-0.293,0.234-0.524,0.527-0.524h4.441
				c0.291,0,0.525,0.231,0.525,0.524C305.637,69.707,305.402,69.939,305.111,69.939z"/>
		</g>
		<g>
			<path fill="#F4F8F7" d="M279.105,61.703c-0.137,0-0.27-0.053-0.375-0.156l-3.14-3.14c-0.206-0.205-0.206-0.541,0-0.747
				c0.205-0.205,0.542-0.205,0.747,0l3.142,3.141c0.205,0.206,0.205,0.54,0,0.746C279.375,61.65,279.24,61.703,279.105,61.703z"/>
		</g>
		<g>
			<path fill="#F4F8F7" d="M275.721,69.939h-4.439c-0.293,0-0.529-0.232-0.529-0.524c0-0.293,0.236-0.524,0.529-0.524h4.439
				c0.293,0,0.529,0.231,0.529,0.524C276.25,69.707,276.014,69.939,275.721,69.939z"/>
		</g>
		<g>
			<path fill="#F4F8F7" d="M293.432,59.966c-0.051,0-0.104-0.006-0.155-0.021c-0.278-0.088-0.436-0.383-0.351-0.661l0.553-1.796
				c0.086-0.279,0.383-0.437,0.66-0.35c0.279,0.085,0.438,0.381,0.35,0.659l-0.553,1.796
				C293.867,59.82,293.658,59.966,293.432,59.966z"/>
		</g>
		<g>
			<path fill="#F4F8F7" d="M299.631,65.402c-0.197,0-0.385-0.108-0.475-0.294c-0.129-0.263-0.021-0.578,0.242-0.709l1.686-0.829
				c0.26-0.128,0.578-0.019,0.706,0.24c0.128,0.263,0.021,0.58-0.241,0.709l-1.686,0.829
				C299.789,65.385,299.709,65.402,299.631,65.402z"/>
		</g>
		<g>
			<path fill="#F4F8F7" d="M276.367,65.402c-0.078,0-0.158-0.018-0.232-0.054l-1.685-0.829c-0.263-0.129-0.37-0.446-0.243-0.709
				c0.131-0.259,0.445-0.368,0.709-0.24l1.686,0.829c0.261,0.131,0.369,0.446,0.24,0.709
				C276.75,65.294,276.562,65.402,276.367,65.402z"/>
		</g>
		<g>
			<path fill="#F4F8F7" d="M283.805,59.966c-0.226,0-0.436-0.146-0.506-0.373l-0.549-1.796c-0.088-0.278,0.07-0.574,0.348-0.659
				c0.28-0.087,0.576,0.07,0.661,0.35l0.551,1.796c0.086,0.278-0.07,0.573-0.349,0.661C283.908,59.96,283.855,59.966,283.805,59.966
				z"/>
		</g>
	</g>
</g>
<g>
	<g>
		<circle fill="#0195DF" cx="47.061" cy="150.291" r="28.525"/>
	</g>
</g>
<g>
	<g>
		<path fill="#F4F8F7" d="M53.508,161.964l-0.039-0.047l-0.075,0.064l-4.329-5.297l2.297-1.878l2.492,3.045l5.518-4.515
			c-1.307-1.602-3.296-2.63-5.529-2.63c-3.94,0-7.131,3.19-7.131,7.129s3.19,7.127,7.131,7.127c3.938,0,7.127-3.188,7.127-7.127
			c0-0.617-0.082-1.21-0.23-1.781L53.508,161.964z"/>
	</g>
	<g>
		<path fill="#F4F8F7" d="M57.518,143.074c-0.838,0-1.646,0.139-2.4,0.388c0.008-0.128,0.02-0.257,0.02-0.388
			c0-4.193-3.395-7.591-7.586-7.591c-4.189,0-7.588,3.397-7.588,7.591c0,0.295,0.025,0.586,0.057,0.877
			c-1.053-0.557-2.246-0.877-3.521-0.877c-4.189,0-7.588,3.395-7.588,7.584c0,4.187,3.398,7.587,7.588,7.587
			c0.144,0,3.936,0,8.258,0c-0.021-0.247-0.037-0.489-0.037-0.735c0-4.924,3.988-8.918,8.913-8.918c4.546,0,8.29,3.412,8.837,7.81
			c1.612-1.392,2.635-3.447,2.635-5.743C65.104,146.469,61.709,143.074,57.518,143.074z"/>
	</g>
</g>
<g>
	<rect x="267.688" y="116.549" fill="#FFFFFF" width="18.312" height="2"/>
</g>
<g>
	<rect x="164.977" y="38.935" fill="#FFFFFF" width="18.312" height="2"/>
</g>
<g>
	<rect x="17.6" y="191.678" fill="#FFFFFF" width="18.312" height="2"/>
</g>
<g>
	<rect x="19.754" y="26.334" fill="#FFFFFF" width="18.312" height="2"/>
</g>
<g>
	<rect x="296.481" y="197.853" fill="#FFFFFF" width="18.312" height="2"/>
</g>
<g>
	<rect x="296.481" y="31.546" fill="#FFFFFF" width="18.312" height="2"/>
</g>
<g id="File_2_">
	<g>
		<path fill="#2C465F" d="M76.785,62.842H38.901c-1.744,0-3.158,1.412-3.158,3.157v41.041c0,1.744,1.414,3.157,3.158,3.157h26.833
			l14.208-14.208v-29.99C79.942,64.254,78.528,62.842,76.785,62.842z"/>
	</g>
</g>
<g id="Container_3_">
	<g>
		<path fill="#FFFFFF" d="M75.206,65.999H40.479c-0.873,0-1.578,0.707-1.578,1.577v37.885c0,0.873,0.705,1.579,1.578,1.579h23.678
			l12.628-12.629V67.576C76.785,66.706,76.077,65.999,75.206,65.999z"/>
	</g>
</g>
<g id="Corner_2_">
	<g>
		<path fill="#0195DF" d="M68.893,95.989c-1.744,0-3.158,1.415-3.158,3.158v11.05l14.208-14.208H68.893z"/>
	</g>
</g>
<g id="Elipse_3_">
	<g>
		<circle fill="#0195DF" cx="51.529" cy="96.955" r="6.93"/>
	</g>
</g>
<g>
	<rect x="43.288" y="83.864" fill="#EBEAE7" width="17.82" height="2.577"/>
</g>
<g>
	<rect x="63.905" y="83.864" fill="#0195DF" width="8.222" height="2.577"/>
</g>
<g>
	<rect x="43.288" y="77.641" fill="#0195DF" width="28.434" height="2.577"/>
</g>
<g>
	<rect x="54.339" y="71.418" fill="#EBEAE7" width="17.383" height="2.576"/>
</g>
<g>
	<path fill="#2C465F" d="M109.331,165.945c0,0.66,0.206,1.215,0.618,1.663c0.412,0.45,0.921,0.674,1.526,0.674
		c0.513,0,0.98-0.188,1.402-0.563c0.421-0.376,0.632-0.82,0.632-1.334c0-0.513-0.188-0.962-0.563-1.347
		c-0.376-0.385-0.82-0.577-1.334-0.577c-0.238,0-0.577,0.036-1.017,0.109v-4.316l0.604,0.055c0.44,0,0.812-0.146,1.113-0.439
		c0.303-0.293,0.454-0.642,0.454-1.045c0-0.422-0.138-0.757-0.412-1.004c-0.275-0.247-0.624-0.371-1.045-0.371
		c-0.385,0-0.701,0.151-0.949,0.453c-0.247,0.303-0.371,0.684-0.371,1.142h-7.424c0.11-1.265,0.413-2.342,0.907-3.23
		c0.495-0.89,1.142-1.604,1.938-2.145c0.798-0.541,1.705-0.931,2.723-1.169s2.148-0.357,3.396-0.357c0.935,0,1.897,0.11,2.887,0.33
		c0.99,0.22,1.916,0.573,2.777,1.059s1.558,1.109,2.09,1.869c0.531,0.761,0.797,1.655,0.797,2.681c0,0.862-0.229,1.664-0.688,2.406
		s-1.081,1.278-1.869,1.608v0.165c1.062,0.275,1.901,0.844,2.516,1.705s0.921,1.852,0.921,2.97c0,1.191-0.279,2.218-0.838,3.079
		c-0.56,0.861-1.302,1.549-2.228,2.062c-0.926,0.513-1.935,0.884-3.024,1.113c-1.091,0.229-2.186,0.344-3.286,0.344
		c-1.319,0-2.553-0.138-3.698-0.412c-1.146-0.275-2.172-0.711-3.079-1.307s-1.632-1.384-2.172-2.364
		c-0.541-0.98-0.839-2.149-0.894-3.506H109.331z"/>
	<path fill="#2C465F" d="M128.027,152.803l10.668-0.33v20.731h-7.479v-14.078l-3.189,0.221V152.803z"/>
</g>
</svg>
