<svg xmlns="http://www.w3.org/2000/svg" xmlns:xlink="http://www.w3.org/1999/xlink" viewBox="0 0 384 221"><defs><style>.cls-1{fill:none;}.cls-2{fill:#f7f7f7;}.cls-3{clip-path:url(#clip-path);}.cls-4{clip-path:url(#clip-path-2);}.cls-5{clip-path:url(#clip-path-3);}.cls-6{fill:#fff;}.cls-7{fill:#ddd;}.cls-8{fill:#ffc900;}.cls-12,.cls-9{fill:#bfbfbf;}.cls-11,.cls-9{fill-rule:evenodd;}.cls-10{fill:#d1d1d1;}.cls-11{fill:#ffd22e;}</style><clipPath id="clip-path"><rect class="cls-1" x="-814.98" y="-703" width="132" height="247"/></clipPath><clipPath id="clip-path-2"><rect class="cls-1" x="-683.98" y="-703" width="132" height="247"/></clipPath><clipPath id="clip-path-3"><rect class="cls-1" x="-552.98" y="-703" width="132" height="247"/></clipPath></defs><title>CERTIF_ILLU-2</title><g id="FOND"><path class="cls-2" d="M154.9,1.84a35.7,35.7,0,0,0-21.11,9.71,67.75,67.75,0,0,0-13.94,20.36c-2.33,5.06-4.13,10.68-8,14.86-3.57,3.88-9.66,4.41-12.79,8.4-5.25,6.69,3.1,14.54,2.92,21.61-.29,11.15-17,11.88-25.12,12.63C61,90.9,44.21,98.19,42.42,116.15c-2.59,26,27.66,29,44.1,39.58,8,5.16,12,14.18,18.73,20.64,9,8.62,20.1,7.57,31.38,4.36,20-5.68,27.92,3.72,39.05,18.13A35.32,35.32,0,0,0,218,209.25c17.43-7.94,22.93-28.59,36.85-40.47,16.25-13.88,39.29-15.59,56-28.78,13.11-10.37,15.13-27.34,4.25-40.09C302,84.61,282.23,82.05,263.48,80.17c-17.66-1.76-27.64-10.42-40.88-21.37-4.65-3.84-6.61-11-9-16.34-3.67-8.25-7.8-16.66-14.06-23.29C188.62,7.58,171,0,154.9,1.84Z"/><circle class="cls-2" cx="283.77" cy="61.53" r="10.32"/><circle class="cls-2" cx="136.63" cy="194.18" r="8.04"/><circle class="cls-6" cx="63.41" cy="126.07" r="5.23"/><polygon class="cls-7" points="304.52 148.34 300.85 137.6 301.32 137.43 304.99 148.18 304.52 148.34"/><polygon class="cls-7" points="297.63 144.96 297.47 144.48 308.21 140.82 308.37 141.29 297.63 144.96"/><polygon class="cls-6" points="96.44 174.71 104.23 158.66 104.93 159 97.14 175.05 96.44 174.71"/><polygon class="cls-6" points="92.49 163.31 92.83 162.61 108.88 170.4 108.54 171.1 92.49 163.31"/></g><g id="ELEMENT"><circle class="cls-6" cx="189.08" cy="120.93" r="72.72"/><path class="cls-8" d="M189.16,47l1.11,0,1.13,0,.32,0a73.33,73.33,0,0,1,51.07,23.08l.06.07.05.08.09.07a73.63,73.63,0,0,1,1.39,99.4l-.06.07v0l-.09.1a73.15,73.15,0,0,1-52.5,24.64h-.19l-1.27,0-1.1,0-.91,0h-.19l-1.13,0h-.32A73.18,73.18,0,0,1,134.17,170a1.58,1.58,0,0,0-.13-.13l0-.07-.06-.06a73.64,73.64,0,0,1,1.4-99.4h0l0,0h0l.3-.28v0a73.32,73.32,0,0,1,50.92-22.93h.18l1.28,0,1.09,0m-28.9,34.08.45-.94a94.14,94.14,0,0,1,20.15-27.68L183.45,50l-3.54.46A70.39,70.39,0,0,0,140,69.71l-1.07,1,1.26.8a90.68,90.68,0,0,0,19.11,9.21l1,.34m57.81,0,1-.34a90.92,90.92,0,0,0,19.11-9.21l1.26-.8-1.07-1a70.42,70.42,0,0,0-39.93-19.24L194.88,50l2.58,2.46a94,94,0,0,1,20.16,27.68l.45.94m-27.49,4.65,1.2,0A92.33,92.33,0,0,0,214,82.35l1.35-.38-.61-1.26A91.33,91.33,0,0,0,192.52,51.8l-1.94-1.69V85.74m-2.84,0V50.11l-1.93,1.69a91.33,91.33,0,0,0-22.19,28.91L163,82l1.34.38a92.4,92.4,0,0,0,22.19,3.36l1.2,0m-69.55,33.68h33.39l0-1.13a94.09,94.09,0,0,1,7-33.46l.47-1.13-1.16-.41a93.86,93.86,0,0,1-20.18-9.92l-.84-.54-.67.74a71.09,71.09,0,0,0-18,44.65l0,1.2m108.56,0h33.39l-.05-1.2a71,71,0,0,0-18-44.65l-.66-.74-.84.54a94.32,94.32,0,0,1-20.18,9.92l-1.16.41.46,1.13a94.1,94.1,0,0,1,7,33.46l0,1.13m-36.17,0h33.34l0-1.19a91.37,91.37,0,0,0-7-32.69l-.4-1-1,.29a94.68,94.68,0,0,1-23.78,3.68l-1.14,0v30.84m-36.17,0h33.33V88.58l-1.13,0a94.82,94.82,0,0,1-23.78-3.68l-1-.29-.4,1a91.37,91.37,0,0,0-7,32.69l0,1.19m88.42,47.85.68-.81a70.13,70.13,0,0,0,16.58-43l.05-1.21H226.75l0,1.14a94.23,94.23,0,0,1-6.17,31.21l-.42,1.11,1.11.4A94.12,94.12,0,0,1,242,166.68l.87.59m-25.4-12.46.39-1a91.1,91.1,0,0,0,6.06-30.34l0-1.2H190.58v28.27l1.14,0a94,94,0,0,1,24.68,3.94l1,.31m-56.54,0,1-.32a94.4,94.4,0,0,1,24.68-3.93l1.13,0V122.26H154.41l0,1.2a91.39,91.39,0,0,0,6.05,30.34l.39,1m-25.4,12.46.87-.59a94.34,94.34,0,0,1,20.72-10.56l1.12-.4-.42-1.11a94.07,94.07,0,0,1-6.17-31.21l0-1.14H118.19l0,1.21a70.22,70.22,0,0,0,16.59,43l.67.81m52.25,24.31V153.36l-1.2,0a91.32,91.32,0,0,0-23.27,3.67l-1.29.38.56,1.22a91.16,91.16,0,0,0,23.27,31.22l1.93,1.69m2.84,0,1.94-1.69a91.16,91.16,0,0,0,23.27-31.22l.55-1.23-1.28-.37a91.16,91.16,0,0,0-23.28-3.67l-1.2,0v38.22m4.29.1,3.55-.46a71.2,71.2,0,0,0,41.52-20.82l1-1-1.17-.78a92,92,0,0,0-19.69-9.9l-1-.37-.44,1a94,94,0,0,1-21.14,29.89l-2.59,2.46m-11.42,0-2.59-2.46a94.1,94.1,0,0,1-21.13-29.89l-.44-1-1,.37a91.53,91.53,0,0,0-19.69,9.9l-1.17.78,1,1a71.17,71.17,0,0,0,41.52,20.82l3.54.46"/><path class="cls-8" d="M189.16,195.18l-.92,0-1.65,0a73.66,73.66,0,0,1-52.8-24.74c0-.06-.07-.08-.09-.11l-.08-.09A74.14,74.14,0,0,1,135,70l.35-.37a73.83,73.83,0,0,1,51.26-23.1l1.47,0c.72,0,1.46,0,2.2,0l1.48,0a73.88,73.88,0,0,1,51.41,23.25l.15.17a74.13,74.13,0,0,1,1.46,100.13l-.17.18a73.67,73.67,0,0,1-52.85,24.81l-1.47,0Q189.73,195.18,189.16,195.18Zm-53-125v0l-.16.2-.31.28a73.13,73.13,0,0,0-1.4,98.74l.09.11a1,1,0,0,1,.14.17,72.65,72.65,0,0,0,52.07,24.39l1.64,0c.67,0,1.33,0,2,0l1.46,0a72.67,72.67,0,0,0,52.14-24.47l.11-.12.06-.07a73.13,73.13,0,0,0-1.39-98.73l-.14-.14a72.9,72.9,0,0,0-50.77-23l-1.46,0c-.77,0-1.45,0-2.16,0l-1.46,0A72.88,72.88,0,0,0,136.19,70.21Zm53.89,122.47V152.85l1.72.05a91.66,91.66,0,0,1,23.4,3.69l1.84.54-.8,1.74a91.72,91.72,0,0,1-23.39,31.4Zm1-38.8v36.6l1.11-1a90.56,90.56,0,0,0,23.14-31l.32-.7-.74-.21a91,91,0,0,0-23.14-3.65Zm-2.84,38.8-2.76-2.41a91.81,91.81,0,0,1-23.4-31.39l-.79-1.75,1.84-.54a91.89,91.89,0,0,1,23.4-3.69l1.71-.05Zm-25.56-34.91.31.69a90.55,90.55,0,0,0,23.15,31l1.1,1v-36.6l-.68,0a90.82,90.82,0,0,0-23.15,3.65Zm30.74,34.61,3.7-3.53a93.23,93.23,0,0,0,21-29.72l.63-1.41,1.45.52a91.88,91.88,0,0,1,19.8,10l1.68,1.11-1.41,1.44a71.7,71.7,0,0,1-41.8,21ZM219.3,159l-.25.56a94.39,94.39,0,0,1-21.24,30.05L196.33,191l2-.27a70.66,70.66,0,0,0,41.22-20.67l.56-.57-.67-.45a91,91,0,0,0-19.58-9.85Zm-34.39,33.41-5.07-.67a71.7,71.7,0,0,1-41.81-21l-1.4-1.44,1.67-1.11a91.88,91.88,0,0,1,19.8-10l1.46-.52.63,1.41a93.45,93.45,0,0,0,21,29.72Zm-46.72-22.9.56.57A70.6,70.6,0,0,0,180,190.72l2,.27-1.48-1.41a94.49,94.49,0,0,1-21.25-30L159,159l-.58.21A90.53,90.53,0,0,0,138.86,169Zm104.74-1.55-1.25-.84a94.2,94.2,0,0,0-20.61-10.5l-1.59-.57.6-1.59a93.77,93.77,0,0,0,6.14-31l0-1.63h34.4l-.07,1.73a70.62,70.62,0,0,1-16.7,43.29Zm-22.16-12.51.64.23a95.83,95.83,0,0,1,20.84,10.61l.49.34.39-.46a69.66,69.66,0,0,0,16.46-42.69l0-.69H227.24l0,.65a94.94,94.94,0,0,1-6.2,31.38ZM135.4,167.93l-1-1.15a70.74,70.74,0,0,1-16.7-43.29l-.06-1.73h34.4l0,1.63a93.81,93.81,0,0,0,6.13,31l.61,1.59-1.6.58a94,94,0,0,0-20.61,10.49Zm-16.69-45.17,0,.69a69.73,69.73,0,0,0,16.47,42.69l.39.46.49-.34a95.76,95.76,0,0,1,20.83-10.61l.64-.23-.24-.63a94.79,94.79,0,0,1-6.2-31.38l0-.65Zm99,32.66-1.48-.44a93.35,93.35,0,0,0-24.54-3.92l-1.63,0V121.76h34.35l-.05,1.72a91.85,91.85,0,0,1-6.09,30.5ZM191.08,150l.65,0a94.57,94.57,0,0,1,24.81,4l.59.18.23-.58a90.88,90.88,0,0,0,6-30.17l0-.69H191.08Zm-30.49,5.38L160,154a91.6,91.6,0,0,1-6.09-30.5l0-1.72h34.34V151l-1.62,0A93.9,93.9,0,0,0,162.07,155Zm-5.66-32.66,0,.69a90.88,90.88,0,0,0,6,30.17l.22.57.59-.17a94.7,94.7,0,0,1,24.81-4l.65,0V122.76Zm105.73-2.83h-34.4l0-1.63a93.47,93.47,0,0,0-7-33.27l-.67-1.63,1.66-.58A93.39,93.39,0,0,0,240.3,73l1.19-.78,1,1.07a71.48,71.48,0,0,1,18.14,45Zm-33.42-1h32.38l0-.7A70.42,70.42,0,0,0,241.7,73.91l-.38-.43-.48.31a94.63,94.63,0,0,1-20.29,10l-.66.23.27.65a94.61,94.61,0,0,1,7.06,33.64Zm-2.81,1H190.08V88.09l1.63,0a94.17,94.17,0,0,0,23.65-3.66l1.43-.41.57,1.37a91.68,91.68,0,0,1,7,32.86Zm-33.35-1H223.4l0-.69a90.75,90.75,0,0,0-6.94-32.5l-.23-.55-.58.16a94.73,94.73,0,0,1-23.9,3.7h-.65Zm-2.84,1H153.9l0-1.72a91.68,91.68,0,0,1,7-32.86l.57-1.37,1.43.41a94.17,94.17,0,0,0,23.65,3.66l1.62,0Zm-33.31-1h32.31V89.06h-.65a94.87,94.87,0,0,1-23.9-3.7l-.57-.16-.23.55a90.75,90.75,0,0,0-6.94,32.5Zm-2.86,1h-34.4l.06-1.73a71.54,71.54,0,0,1,18.15-45l1-1.07L138,73a94.25,94.25,0,0,0,20.07,9.87l1.66.58L159.09,85a93.63,93.63,0,0,0-7,33.27Zm-33.36-1h32.38l0-.65a94.61,94.61,0,0,1,7.06-33.64l.27-.65-.67-.23a94.33,94.33,0,0,1-20.28-10l-.48-.31-.39.43a70.53,70.53,0,0,0-17.89,44.32Zm71.37-32.67V49l2.77,2.41a92,92,0,0,1,22.31,29.07l.87,1.8-1.92.54a92.9,92.9,0,0,1-22.31,3.38Zm1-35.05v34l.69,0a91.42,91.42,0,0,0,22.07-3.35l.77-.21-.35-.72a90.74,90.74,0,0,0-22.07-28.75Zm-2.84,35.05-1.71-.05a92.9,92.9,0,0,1-22.31-3.38l-1.92-.54.87-1.8a91.81,91.81,0,0,1,22.31-29.07L188.24,49Zm-24.52-4.61.77.21a91.42,91.42,0,0,0,22.07,3.35l.68,0v-34l-1.1,1a90.74,90.74,0,0,0-22.07,28.75Zm54.09.06-.64-1.34a93.82,93.82,0,0,0-20-27.54l-3.7-3.52,5.07.66a70.89,70.89,0,0,1,40.2,19.38l1.53,1.47L238.43,72a91.75,91.75,0,0,1-19.22,9.27Zm-21.48-31,1.48,1.41a94.53,94.53,0,0,1,20.26,27.83l.25.54.57-.2a91.19,91.19,0,0,0,19-9.16l.71-.46-.61-.59A69.92,69.92,0,0,0,198.36,51Zm-35.81,31-1.41-.48A91.68,91.68,0,0,1,139.9,72l-1.79-1.14,1.53-1.47A70.89,70.89,0,0,1,179.84,50l5.07-.66-3.7,3.52a93.51,93.51,0,0,0-20.05,27.54Zm-20.8-11,.71.46a91,91,0,0,0,19,9.16l.56.19.26-.53a94.36,94.36,0,0,1,20.26-27.83L182,50.7,180,51a69.86,69.86,0,0,0-39.64,19.1Z"/><polyline class="cls-9" points="251.6 179.22 276.42 183.63 278 188.09 259.28 195.47"/><polyline class="cls-9" points="235.31 190.07 229.79 214.67 233.31 217.85 247.33 203.42"/><path class="cls-10" d="M227.83,148.26l-6.07,4-6.08,4s-2,8.05,8.39,23.8,24.7,28.35,24.7,28.35l6.95-4.57,6.94-4.57s-5.91-18.15-16.27-33.9S227.83,148.26,227.83,148.26Z"/><path class="cls-6" d="M234.44,171.48a5.52,5.52,0,1,0-7.65-1.58A5.53,5.53,0,0,0,234.44,171.48Z"/><path class="cls-6" d="M242.11,183a2.67,2.67,0,1,0-3.7-.76A2.67,2.67,0,0,0,242.11,183Z"/><path class="cls-6" d="M248.86,193.1a2.66,2.66,0,1,0-3.7-.76A2.66,2.66,0,0,0,248.86,193.1Z"/><path class="cls-11" d="M251.33,208l10.89-6.65A27.12,27.12,0,0,1,269.76,215s-1.5-.71-3.5-1.47A13.85,13.85,0,0,1,267.4,221S258.27,223,251.33,208Z"/><path class="cls-12" d="M264.19,198.83a1,1,0,0,1-.27,1.35l-15.1,10a1,1,0,0,1-1.34-.27h0a1,1,0,0,1,.27-1.35l15.09-10.05a1,1,0,0,1,1.35.27Z"/><polygon class="cls-12" points="214.89 157.73 212.61 138.35 229.51 148.1 214.89 157.73"/><path class="cls-6" d="M230.49,148.32a.71.71,0,0,1-.21,1l-14.59,9.6a.71.71,0,0,1-1-.2h0a.71.71,0,0,1,.21-1l14.59-9.61a.72.72,0,0,1,1,.21Z"/></g><g id="PERSO"><path class="cls-7" d="M124.47,71.79c-10,0-30.37-9.58-46.42-31.38l.4-.3c18.61,25.29,42.91,34.06,49.93,30.43,3.83-2,7.11-6.72,10-10.89,3.43-4.94,6.39-9.2,9.65-8.64s5.18,5.2,6.81,9.28c1.11,2.8,2.17,5.45,3.44,5.89a1.24,1.24,0,0,0,1.09-.14c3-1.7,3.9-6.26,4.87-11.08,1.35-6.78,2.88-14.45,11-14.45V41c-7.73,0-9.15,7.14-10.53,14.05-1,4.94-1.92,9.6-5.12,11.41a1.76,1.76,0,0,1-1.5.19c-1.48-.53-2.53-3.15-3.74-6.19-1.57-3.95-3.36-8.43-6.42-9s-6,3.83-9.16,8.43c-2.93,4.23-6.25,9-10.18,11.05A9.12,9.12,0,0,1,124.47,71.79Z"/></g></svg>