<svg xmlns="http://www.w3.org/2000/svg" viewBox="0 0 384 221"><defs><style>.cls-1{fill:#f7f7f7;}.cls-2{fill:#ddd;}.cls-3{fill:#fff;}.cls-4{fill:#d1d1d1;}.cls-5{fill:#bfbfbf;}.cls-6{fill:#ffc900;}.cls-7{fill:none;stroke:#ddd;stroke-miterlimit:10;stroke-width:0.5px;}</style></defs><title>CERTIF_ILLU-3</title><g id="FOND"><path class="cls-1" d="M182.24,206c15.82-6.62,31-8.66,46.46-.3,8.48,4.58,19.49,10.19,29.18,5.91,8-3.55,11.34-12.32,17.36-18.12,10.73-10.33,24.54-11.56,37.25-18.05,13.53-6.91,24.26-18.39,17-34.19S293.73,120.37,293,101.39c-.49-12.78-2.15-22.76-17.08-17.7-12.87,4.37-20.3,4.82-30.57-6.25-9.23-10-10.31-22.88-10.68-35.79-.44-15.37-5.08-29.22-20.22-35.57-10.07-4.22-23.7-7.29-34.11-2.51-6.84,3.14-12.4,9.78-19.49,13-8.75,4-18.57,1.42-27.5,4.58-15,5.32-4.63,23.68-16,32.05-11.56,8.55-31.76-2.51-44.5-2.91C60.85,50,47.34,57,43.47,69c-4.58,14.17,8.4,23.46,18.72,30.23,16.12,10.57,43,26.45,42.35,48.83-.5,16.89-15.9,29.58-16.86,46.28-1.32,23.06,29.26,26.61,46.18,25C150.29,217.7,167.05,212.37,182.24,206Z"/><polygon class="cls-2" points="74.63 59.36 81.15 45.93 81.74 46.22 75.22 59.64 74.63 59.36"/><polygon class="cls-2" points="71.33 49.82 71.62 49.23 85.04 55.75 84.76 56.34 71.33 49.82"/><circle class="cls-1" cx="80.96" cy="155.92" r="10.96"/><circle class="cls-3" cx="65.85" cy="82.59" r="4.15"/><circle class="cls-3" cx="308.21" cy="158.4" r="7.37"/><circle class="cls-1" cx="313.75" cy="102.3" r="5.53"/></g><g id="ELEMENT"><rect class="cls-4" x="184.32" y="34.22" width="15.35" height="24.12"/><path class="cls-4" d="M202.73,23.31H181.27a6,6,0,0,0,0,12h21.46a6,6,0,1,0,0-12Z"/><rect class="cls-5" x="224.93" y="56.92" width="19.34" height="12.31" transform="translate(62.55 234.58) rotate(-59.96)"/><path class="cls-5" d="M251.27,51.43l-14.89-8.61a4.79,4.79,0,0,0-4.8,8.3l14.89,8.61a4.79,4.79,0,1,0,4.8-8.3Z"/><circle class="cls-6" cx="192" cy="122.25" r="74.45"/><circle class="cls-3" cx="192" cy="122.25" r="60.93" transform="translate(-23.95 50.31) rotate(-14.06)"/><circle class="cls-3" cx="192.7" cy="122.96" r="66.03"/><path class="cls-5" d="M192.7,190.15A67.19,67.19,0,1,1,259.89,123,67.26,67.26,0,0,1,192.7,190.15Zm0-132.06A64.87,64.87,0,1,0,257.57,123,64.94,64.94,0,0,0,192.7,58.09Z"/><path class="cls-5" d="M192.7,189.23a1.16,1.16,0,0,1-1.16-1.16v-12.5a1.16,1.16,0,0,1,2.32,0v12.5A1.15,1.15,0,0,1,192.7,189.23Z"/><path class="cls-5" d="M147,169.31a1.17,1.17,0,0,1-.82-2l8.84-8.84a1.16,1.16,0,0,1,1.64,1.64L147.81,169A1.17,1.17,0,0,1,147,169.31Z"/><path class="cls-5" d="M155.83,86.74a1.13,1.13,0,0,1-.82-.34l-8.84-8.84a1.15,1.15,0,0,1,0-1.64,1.16,1.16,0,0,1,1.64,0l8.84,8.84a1.16,1.16,0,0,1,0,1.64A1.14,1.14,0,0,1,155.83,86.74Z"/><path class="cls-5" d="M238.46,169.31a1.17,1.17,0,0,1-.82-.35l-8.84-8.84a1.16,1.16,0,0,1,1.64-1.64l8.85,8.84a1.17,1.17,0,0,1-.83,2Z"/><path class="cls-5" d="M139.94,124.12H127.43a1.16,1.16,0,1,1,0-2.32h12.51a1.16,1.16,0,1,1,0,2.32Z"/><path class="cls-4" d="M192.7,58.09V123h65.49C258.19,87.13,228.87,58.09,192.7,58.09Z"/><path class="cls-5" d="M193.16,71.51A1.16,1.16,0,0,1,192,70.35V57.84a1.16,1.16,0,0,1,2.32,0V70.35A1.16,1.16,0,0,1,193.16,71.51Z"/><path class="cls-5" d="M192.7,121.64a1.16,1.16,0,0,1-1.16-1.16V93a1.16,1.16,0,0,1,2.32,0v27.46A1.15,1.15,0,0,1,192.7,121.64Z"/><path class="cls-5" d="M229,86a1.2,1.2,0,0,1-.82-.34,1.18,1.18,0,0,1,0-1.65L237,75.13a1.17,1.17,0,1,1,1.65,1.65l-8.85,8.84A1.17,1.17,0,0,1,229,86Z"/><path class="cls-5" d="M257,124.12H244.52a1.16,1.16,0,1,1,0-2.32H257a1.16,1.16,0,1,1,0,2.32Z"/><circle class="cls-5" cx="192.7" cy="122.96" r="5.53"/><path class="cls-7" d="M220.68,120.11c-.64,11.08,4.58,15.89,9.67,17,1.86.42,4,1.16,5.81.27s3.58-3.15,2.17-5.08a2.25,2.25,0,0,0-3.88.16,5.23,5.23,0,0,0-.76,2.63,8,8,0,0,0,.39,3.26c.94,2.58,3.43,3.21,5.93,2.93,2.23-.26,10.66-3.94,7.07,1.79-1.46,2.33-3,4.77-3.65,7.49-.54,2.34.5,5,3.06,5.5,2.13.39,4.66-.65,6.55-1.53,5.1-2.39,9.63-6.09,13.8-9.82,1.56-1.39,3.15-2.75,4.63-4.23.79-.8,2.8-4.38,4-2.89.8,1,.6,3.46.67,4.64.12,2.2-.58,11.67,3,11.54,2.53-.09,4.25-3.1,5.85-4.72,3.54-3.57,7.15-6.16,11.33-7.18"/></g></svg>