<svg xmlns="http://www.w3.org/2000/svg" xmlns:xlink="http://www.w3.org/1999/xlink" viewBox="0 0 429.79 469.76"><defs><style>.cls-1,.cls-10{fill:none;}.cls-2{clip-path:url(#clip-path);}.cls-3{clip-path:url(#clip-path-2);}.cls-4{clip-path:url(#clip-path-3);}.cls-5{fill:#ffc900;}.cls-6{fill:#fff;}.cls-7{fill:#141e54;}.cls-8{fill:#ddd;}.cls-9{fill:#1d2d7f;}.cls-10{stroke:#ddd;stroke-miterlimit:10;}</style><clipPath id="clip-path"><rect class="cls-1" x="-297.49" y="-703" width="132" height="247"/></clipPath><clipPath id="clip-path-2"><rect class="cls-1" x="-166.49" y="-703" width="132" height="247"/></clipPath><clipPath id="clip-path-3"><rect class="cls-1" x="-35.49" y="-703" width="132" height="247"/></clipPath></defs><title>CERTIF_ILLU-1_1</title><g id="PERSO"><polygon class="cls-5" points="157.39 328.47 143.97 289.7 104.8 301.61 154.86 203.09 207.45 229.94 157.39 328.47"/><polygon class="cls-5" points="260.2 328.47 273.61 289.7 312.79 301.61 262.72 203.09 210.15 229.94 260.2 328.47"/><path class="cls-5" d="M319.27,123.23c0,5.73-6.48,10.9-7.27,16.46s3.94,12.47,2.43,17.84-9.28,8.62-11.62,13.72S303.07,184.3,300,189s-11.32,5.64-15,9.89-3.4,12.57-7.67,16.28-12.44,2.22-17.2,5.28S253.36,231.59,248.2,234s-12.53-1.39-18,.21-9.6,8.73-15.25,9.53-11.58-4.84-17.33-4.84-11.8,5.66-17.31,4.84-9.9-8-15.26-9.53-12.88,2.12-18-.21-7.2-10.41-11.93-13.47S122.2,218.9,118,215.2s-4-12-7.67-16.28-12-5.14-15-9.89-.43-12.62-2.79-17.78-10-8.27-11.63-13.72,3.17-12.19,2.42-17.84S76,129,76,123.23s6.49-10.9,7.27-16.46S79.33,94.3,80.84,88.94s9.28-8.63,11.62-13.73-.27-13,2.78-17.78,11.33-5.64,15-9.89,3.4-12.57,7.66-16.28S130.38,29,135.14,26s6.77-11.11,11.92-13.47,12.53,1.39,18-.22,9.6-8.72,15.26-9.52,11.58,4.84,17.31,4.84S209.43,2,214.94,2.77s9.9,8,15.27,9.52,12.88-2.11,18,.22S255.39,22.94,260.13,26s12.93,1.59,17.19,5.28,4,12,7.67,16.28,12,5.14,15,9.89.42,12.62,2.79,17.78,10,8.26,11.61,13.73-3.16,12.18-2.42,17.83S319.27,117.5,319.27,123.23Z"/><circle class="cls-6" cx="197.57" cy="123.25" r="101.27"/><path class="cls-5" d="M197.5,213.25a89.85,89.85,0,1,1,89.85-89.85h0A89.94,89.94,0,0,1,197.5,213.25Zm0-178.63a88.79,88.79,0,1,0,88.77,88.79h0A88.89,88.89,0,0,0,197.5,34.62Z"/><path class="cls-5" d="M193.33,168.94V97.38l-22.94,12.36V90.87l24.43-13H213V169Z"/><g id="PERSO-2" data-name="PERSO"><path class="cls-7" d="M340.87,460.45s-3.31,4.65-13.23,4.65a4.66,4.66,0,0,0-4.94,4.34c0,.11,0,.21,0,.32h24.77v-9.31Z"/><path class="cls-7" d="M381.68,461.18s-3.05,4.29-12.2,4.29a4.28,4.28,0,0,0-4.55,4,2.71,2.71,0,0,0,0,.29h22.86v-8.58Z"/><path class="cls-8" d="M366.32,178c.31,13.53-3.34,15.91-.24,22.1s9.29,9.3,12.39,9.3c1.11,0,5.43.36,6,.76s0,3.26,0,5.15l-.25,5.64v.84h9.29a61.06,61.06,0,0,1-1.53-12.05,64,64,0,0,0,1.54-6.54l.88-19.83-21.69-5.45-5.18-1.78-1.35,2.26"/><path class="cls-9" d="M384.63,165.79c-1.21-.07-7.15.47-9.69.71a32.52,32.52,0,0,1-6.76.16c-11-1.67-11.11,2.82-8.48,4.85,3.47,2.67,4.37,6.4,7.27,6.91,9.69,1.71,20.1,10.61,22.77,6.39a2.41,2.41,0,0,1,3.37-.61,1.71,1.71,0,0,1,.26.21c.86.86.33,3.37-.88,4.84-2.6,3.26-2.14,13.95.94,13.95,3.88,0,8.85-2.86,8.85-6s2.87-13.33.26-17.34a43.56,43.56,0,0,0-7.09-8.24c-1.54-1.54-3.55-2.52-5.14-4S386.88,165.92,384.63,165.79Z"/><path class="cls-9" d="M359.88,296.18s-39.07,65.09-39.07,83.69,20.44,80.58,20.44,80.58h6.21s-6.53-61-3.43-70.33c2.2-6.57,15.82-41.19,15.82-41.19s-3.1,31,0,40.29,21.81,72,21.81,72l6.06,2.42s3.09-55.78,0-68.19c-2.43-9.51-6.21-18.59-6.21-21.7,0-9.29,13.54-40.6,15.5-46.48,3.1-9.3,0-31,0-31Z"/><path class="cls-9" d="M359.88,296.18c-6.2-9.29.31-43.39,0-49.58-.23-4.49-34.75,5-41.19-.4-4.76-4-33.2-55.38-33.2-55.38l4.33-2.17s30.29,37.7,37.17,44.63c1.61,1.59,7.12-.15,8.91-.5,5.58-1.1,11.08-2.58,16.54-4.11,5.11-1.41,10.2-2.92,15.26-4.47,1.75-.53,8.3-2.14,10.1-2.51,5.71-1.11,6.39,0,11.58.11,3,0,5.93-1.06,8.66,0a25.19,25.19,0,0,1,7,4.92q6.3,6.36,12.6,12.71c6.21,6.2,16.25,19.19,10.46,25.77-6,6.77-30.29,37.18-30.29,37.18a61.36,61.36,0,0,1-.76-6.2s6.65-10.32,8.33-13.82q5.06-10.5,9.69-21.16a3.7,3.7,0,0,0-1-5,75.46,75.46,0,0,0-10.79-9.57l-1.53,19.88c-.48,6.32-2,13.08-2.42,19.38-.32,4.45-1.47,10.29-2.24,10.29Z"/><path class="cls-8" d="M285.5,190.82l-6.06-4.1c-1.95-1.32-2.69-1.8-3.27-3.22-.15-.35-.57-3,.27-3.49,1.21-.78,6.21,4.29,8.11,4.22.87,0,1.13-1.62,1.47-3,.41-1.72,1.75-2.2,1.75-.61,0,5.65,2.08,8.06,2.08,8.06Z"/><path class="cls-8" d="M398.34,301.77s-1.84,2.56-4.29,5.92c-1.38,1.92-1.89,2.63-3.33,3.18-.34.13-3,.47-3.46-.38-.74-1.21,4.48-6.06,4.45-8,0-.87-1.56-1.21-3-1.56-1.69-.46-2.12-1.83-.53-1.77,5.63.21,8.12-1.82,8.12-1.82Z"/></g><path class="cls-10" d="M0,219.35c35.51-32.27,54.37-35.28,65.14-30.44S79.94,207,86.26,205.54c10.35-2.45,6.34-39.79,18.36-42.88,6.57-1.7,11.87,8.45,17,6.41,9.7-3.83-.69-43.07,7.16-46.06,5.79-2.2,11.54,19.15,29.92,26.86,14.61,6.14,34.09,2.33,50.88-7.7"/></g></svg>