<svg xmlns="http://www.w3.org/2000/svg" viewBox="0 0 384 221"><defs><style>.cls-1{fill:#f7f7f7;}.cls-2{fill:#fff;}.cls-3{fill:#ddd;}.cls-4{fill:#bfbfbf;}.cls-5{fill:#ffc900;}.cls-6{fill:none;stroke:#d1d1d1;stroke-miterlimit:10;stroke-width:0.5px;}</style></defs><title>Plan de travail 9 copie 2</title><g id="FOND"><path class="cls-1" d="M303.46,187.92c7.1-14.87,1-29.37-3.36-44-2.78-9.42,4.09-15.9,9-22.82,7.81-11,1.35-18.06-5.66-26.74-7.2-8.93-6.4-19.54-2.36-29.64,5.76-14.42,19.32-18.84,18.57-36.47C319,12.65,301.82.73,287.3,2.32c-14.23,1.56-27.11,11-43.23,6.6-7.21-2-13.57-6.92-21.17-6.13-6.82.71-12.46,5.36-16.51,10.65-7.18,9.36-11.41,22.34-22,28.6-10,5.91-18.51-1.17-27.43-5.54-17.09-8.36-53,.74-49.7,25.33,2.89,21.5,8.33,35.13,5.38,56-1.89,13.4-18.45,22.65-28.72,29C74.15,153,66.05,162.59,66.23,174.8A34.51,34.51,0,0,0,85.76,205c11.82,5.51,28.7.41,38.33-7.52,17.06-14.05,28.22.88,39.12-.54,13.66-1.78,13.9-17.64,24.37-13.11,9.26,4,18.83,10.79,29.21,11,6.5.15,15-17.49,23.15-11.76C258.54,196.16,295.9,203.74,303.46,187.92Z"/><circle class="cls-1" cx="327.26" cy="80.19" r="10.28"/><circle class="cls-1" cx="86.01" cy="115.42" r="7.72"/><circle class="cls-2" cx="96.9" cy="189.05" r="8.09"/><circle class="cls-2" cx="226.13" cy="15.91" r="4.24"/><polygon class="cls-3" points="273.96 31.72 286.74 25.26 287.02 25.82 274.25 32.29 273.96 31.72"/><polygon class="cls-3" points="276.98 22.53 277.54 22.24 284.01 35.02 283.44 35.3 276.98 22.53"/><polygon class="cls-2" points="111.66 99.6 121.88 116.06 121.15 116.51 110.93 100.05 111.66 99.6"/><polygon class="cls-2" points="124.41 102.59 124.86 103.31 108.4 113.53 107.95 112.81 124.41 102.59"/></g><g id="ELEMENT"><polygon class="cls-4" points="183.78 219.91 171.67 203.35 151.09 203.22 182.21 141.96 214.91 158.66 183.78 219.91"/><polygon class="cls-4" points="236.6 220.81 246.67 202.68 267.52 201.02 230.61 143.07 199.69 162.85 236.6 220.81"/><path class="cls-5" d="M282.49,120.85c0,3.51-4,6.71-4.46,10.09s2.42,7.64,1.45,10.93-5.69,5.29-7.12,8.42.16,8-1.71,10.9-6.95,3.45-9.21,6.06-2.08,7.71-4.7,10-7.62,1.36-10.54,3.24-4.15,6.81-7.32,8.25-7.68-.85-11,.14-5.89,5.35-9.36,5.84-7.1-3-10.61-3-7.24,3.47-10.62,3-6.06-4.88-9.35-5.84-7.9,1.29-11-.14-4.42-6.38-7.32-8.25-7.93-1-10.54-3.24-2.43-7.36-4.7-10-7.33-3.15-9.21-6.06-.26-7.74-1.71-10.9-6.14-5.07-7.12-8.42,1.94-7.47,1.45-10.93-4.45-6.58-4.45-10.09,4-6.71,4.45-10.09-2.41-7.64-1.45-10.93,5.69-5.29,7.12-8.42-.16-8,1.71-10.9,6.95-3.45,9.21-6.06,2.09-7.71,4.7-10,7.63-1.36,10.55-3.24,4.15-6.81,7.31-8.26,7.68.85,11-.13,5.88-5.35,9.35-5.84,7.1,3,10.62,3,7.23-3.47,10.61-3,6.07,4.88,9.36,5.84,7.9-1.3,11,.13,4.41,6.39,7.31,8.26,7.93,1,10.54,3.24,2.43,7.36,4.7,10,7.33,3.14,9.21,6.06.26,7.73,1.71,10.9,6.14,5.07,7.12,8.42-1.94,7.46-1.45,10.93S282.49,117.33,282.49,120.85Z"/><circle class="cls-2" cx="207.89" cy="120.85" r="62.09" transform="translate(-29.96 85.52) rotate(-21.72)"/><path class="cls-4" d="M207.89,182.9A63.09,63.09,0,1,1,271,119.81,63.16,63.16,0,0,1,207.89,182.9Zm0-124.17A61.09,61.09,0,1,0,269,119.81,61.15,61.15,0,0,0,207.89,58.73Z"/><path class="cls-4" d="M204.14,157.44V101.75l-17.86,9.62V96.69l19-10.13h14.07v70.88Z"/><path class="cls-6" d="M207.89,92c31.1,12.6,54.58-8.34,47.65-22.23-4.17-8.38-10.22-19.22-5-24.5,5.66-5.74,19.91,11.25,23.17-1.54"/></g></svg>