<svg width="35px" height="35px" viewBox="0 0 35 35" xmlns="http://www.w3.org/2000/svg" xmlns:xlink="http://www.w3.org/1999/xlink">
    <g id="Icon-Facebook" stroke="none" stroke-width="1" fill="none" fill-rule="evenodd">
        <path d="M22.323235,10.706264 L19.7808319,10.706264 C19.363753,10.706264 18.7772846,10.9146494 18.7772846,11.8021587 L18.7772846,14.1683304 L22.3129406,14.1683304 L21.8996052,18.1850512 L18.7769726,18.1850512 L18.7769726,29.6250312 L14.0459192,29.6250312 L14.0459192,18.1850512 L11.7958145,18.1850512 L11.7958145,14.164587 L14.0459192,14.164587 L14.0459192,11.5628899 C14.0459192,9.70239581 14.9296773,6.78905665 18.8190861,6.78905665 L22.323235,6.80371849 L22.323235,10.706264 Z M17.499844,0 C7.8352808,0 0,7.83503868 0,17.5 C0,27.1649613 7.8352808,35 17.499844,35 C27.1650312,35 35,27.1649613 35,17.5 C35,7.83503868 27.1650312,0 17.499844,0 Z" id="Fill-1" fill="#FFFFFF"></path>
    </g>
</svg>
