<svg width="35px" height="35px" viewBox="0 0 35 35" xmlns="http://www.w3.org/2000/svg" xmlns:xlink="http://www.w3.org/1999/xlink">
    <g id="Icon-Linkedin" stroke="none" stroke-width="1" fill="none" fill-rule="evenodd">
        <path d="M27.9560769,26.1230347 L23.7730846,26.1230347 L23.7730846,19.3916895 C23.7730846,17.7015223 23.1691415,16.5472922 21.6546044,16.5472922 C20.4988146,16.5472922 19.8122036,17.3243699 19.5089843,18.0768031 C19.3985525,18.3457075 19.3704767,18.7194285 19.3704767,19.096581 L19.3704767,26.1227227 L15.1868605,26.1227227 C15.1868605,26.1227227 15.2433242,14.7220489 15.1868605,13.5419266 L19.3707886,13.5419266 L19.3707886,15.3247442 C19.9266908,14.4696781 20.9177689,13.2468181 23.1404417,13.2468181 C25.8928126,13.2468181 27.9560769,15.0446094 27.9560769,18.9081607 L27.9560769,26.1230347 Z M10.7833167,11.8252433 L10.7561767,11.8252433 C9.35300724,11.8252433 8.44397305,10.8588096 8.44397305,9.65092338 C8.44397305,8.41683304 9.38014724,7.47753931 10.8110806,7.47753931 C12.2423259,7.47753931 13.1214125,8.41683304 13.1494884,9.65092338 C13.1494884,10.8588096 12.2423259,11.8252433 10.7833167,11.8252433 Z M8.69260045,26.1230347 L12.8740329,26.1230347 L12.8740329,13.5419266 L8.69260045,13.5419266 L8.69260045,26.1230347 Z M17.499688,0 C7.83503868,0 0,7.83503868 0,17.5 C0,27.1649613 7.83503868,35 17.499688,35 C27.1649613,35 35,27.1649613 35,17.5 C35,7.83503868 27.1649613,0 17.499688,0 Z" id="Fill-3" fill="#FFFFFF"></path>
    </g>
</svg>
