<svg xmlns="http://www.w3.org/2000/svg" xmlns:xlink="http://www.w3.org/1999/xlink" viewBox="0 0 36 36">
<path fill="#FFFFFF" d="M18,0.9C8.5,0.9,0.9,8.5,0.9,18S8.5,35.1,18,35.1S35.1,27.5,35.1,18S27.5,0.9,18,0.9z M26.7,15.3
	c0,0.2,0,0.4,0,0.5c0,5.5-4.2,11.9-11.9,11.9c-2.4,0-4.6-0.7-6.4-1.9c0.3,0,0.7,0.1,1,0.1c2,0,3.8-0.7,5.2-1.8
	c-1.8,0-3.4-1.2-3.9-2.9c0.3,0,0.5,0.1,0.8,0.1c0.4,0,0.8-0.1,1.1-0.2c-1.9-0.4-3.3-2.1-3.3-4.1V17c0.6,0.3,1.2,0.5,1.9,0.5
	c-1.1-0.8-1.9-2-1.9-3.5c0-0.8,0.2-1.5,0.6-2.1c2.1,2.5,5.1,4.2,8.6,4.4c-0.1-0.3-0.1-0.6-0.1-0.9c0-2.3,1.9-4.2,4.2-4.2
	c1.2,0,2.3,0.5,3.1,1.3c1-0.2,1.9-0.5,2.7-1c-0.3,1-1,1.8-1.8,2.3c0.9-0.1,1.7-0.3,2.4-0.7C28.3,14,27.5,14.8,26.7,15.3z"/>
</svg>
