<svg xmlns="http://www.w3.org/2000/svg" xmlns:xlink="http://www.w3.org/1999/xlink" viewBox="0 0 100 125" version="1.1" x="0px" y="0px">
    <g stroke="none" stroke-width="1" fill="none" fill-rule="evenodd">
        <g fill="#000000">
            <path d="M71.4256735,50.8607241 C70.1697959,50.8607241 68.9750748,51.1873386 67.9249592,51.7691389 L67.9249592,51.6129746 C67.9249592,47.3497652 64.5846327,43.881272 60.4788639,43.881272 C59.2143061,43.881272 58.0223469,44.2104305 56.9781497,44.790274 L56.9781497,44.622955 C56.9781497,40.3597456 53.6378231,36.8914481 49.5318571,36.8914481 C48.2676939,36.8914481 47.0782993,37.213953 46.0366667,37.7861644 L46.0366667,17.0554403 C46.0366667,12.8429159 42.791034,9.32217221 38.8016599,9.20690802 C36.8363673,9.14898239 34.9634014,9.88166341 33.5260272,11.2663992 C32.0123061,12.7247162 31.1440816,14.7910568 31.1440816,16.9352838 L31.1440816,52.8362622 C31.136585,52.8376321 31.1284966,52.8391977 31.121,52.8403718 L31.121,70.0358708 C31.121,70.576184 30.6794898,71.0143444 30.1346054,71.0143444 C29.5899184,71.0143444 29.1482109,70.576184 29.1482109,70.0358708 L29.1482109,53.3617025 C28.0158299,53.7748141 26.7796803,54.4356751 25.6137619,55.4924266 C22.5521905,58.2677691 21,62.7513307 21,68.8186497 C21,78.408865 27.3908503,86.73 28.0247075,87.5315656 C28.7455646,88.5411546 37.0638299,99.7298043 51.4610476,99.7298043 C59.4429524,99.7298043 66.1583265,96.8994716 70.8815782,91.5446771 C74.3418503,87.6213894 76.5432857,82.4419374 77.0806735,76.9603327 L78.8624966,58.7816634 C78.8688095,58.7186497 78.8717687,58.6554403 78.8717687,58.5922309 C78.8717687,54.3290215 75.5314422,50.8607241 71.4256735,50.8607241 M27.1897442,28.4154599 C26.6326286,28.4154599 26.0786694,28.1825832 25.688649,27.7293542 C23.0721388,24.6900196 21.6312136,20.8142857 21.6312136,16.8162427 C21.6312136,7.54383562 29.2359211,0 38.5835878,0 C47.9310571,0 55.5357646,7.54383562 55.5357646,16.8162427 C55.5357646,20.8146771 54.0948395,24.690411 51.4783293,27.7293542 C50.7706898,28.5508806 49.5256626,28.6485323 48.6970912,27.9463796 C47.8683224,27.2444227 47.7704721,26.0091977 48.4779143,25.1872798 C50.4848327,22.8565558 51.5901864,19.8835616 51.5901864,16.8162427 C51.5901864,9.70195695 45.755268,3.91389432 38.5835878,3.91389432 C31.4115129,3.91389432 25.5767918,9.70195695 25.5767918,16.8162427 C25.5767918,19.8833659 26.6821456,22.8563601 28.6890639,25.1876712 C29.3967034,26.009589 29.2982612,27.2448141 28.4698871,27.9465753 C28.0982136,28.2614481 27.6428939,28.4154599 27.1897442,28.4154599"/>
        </g>
    </g>
</svg>