<?xml version="1.0" encoding="utf-8"?>
<!-- Generator: Adobe Illustrator 22.1.0, SVG Export Plug-In . SVG Version: 6.00 Build 0)  -->
<svg version="1.1" id="Calque_1" xmlns="http://www.w3.org/2000/svg" xmlns:xlink="http://www.w3.org/1999/xlink" x="0px" y="0px"
	 viewBox="0 0 31 24" style="enable-background:new 0 0 31 24;" xml:space="preserve">
<style type="text/css">
	.st0{fill:#141E54;}
</style>
<path class="st0" d="M31,22.4c0,0.9-0.7,1.6-1.5,1.6H1.5C0.7,24,0,23.3,0,22.4s0.7-1.6,1.5-1.6h27.9C30.3,20.8,31,21.5,31,22.4z"/>
<path class="st0" d="M31,12c0,0.9-0.7,1.6-1.5,1.6h-14c-0.9,0-1.5-0.7-1.5-1.6s0.7-1.6,1.5-1.6h14C30.3,10.4,31,11.1,31,12z"/>
<path class="st0" d="M31,1.6c0,0.9-0.7,1.6-1.5,1.6H1.5C0.7,3.2,0,2.5,0,1.6S0.7,0,1.5,0h27.9C30.3,0,31,0.7,31,1.6z"/>
</svg>
