<svg xmlns="http://www.w3.org/2000/svg" xmlns:xlink="http://www.w3.org/1999/xlink" version="1.1" x="0px" y="0px" viewBox="0 0 48 60" enable-background="new 0 0 48 48" xml:space="preserve">
    <g>
        <path d="M46.5,39.3h-3.3c-0.8,0-1.5,0.7-1.5,1.5l0,0c0,0.8,0.7,1.5,1.5,1.5h3.3c0.8,0,1.5-0.7,1.5-1.5l0,0   C48,40,47.3,39.3,46.5,39.3z"/>
        <rect y="39.3" width="3" height="3"/>
        <path d="M45,4.4H3c-1.7,0-3,1.3-3,3v24.8c0,1.7,1.3,3,3,3h42c1.7,0,3-1.3,3-3V7.4C48,5.8,46.7,4.4,45,4.4z M44,31.2H4V8.4h40V31.2z   "/>
        <path d="M21.3,26.4l7.5-5.1c1-0.7,1-2.2,0-2.9l-7.5-5.1c-1.2-0.8-2.8,0-2.8,1.5v10.2C18.5,26.3,20.1,27.2,21.3,26.4z"/>
        <path d="M6.1,40.8c0,0.8,0.6,1.4,1.4,1.4h3.2v-2.8H7.5C6.7,39.4,6.1,40,6.1,40.8z"/>
        <path d="M37.5,39.4H17.3v2.8h20.2c0.8,0,1.4-0.6,1.4-1.4S38.3,39.4,37.5,39.4z"/>
        <path d="M14,38.1c-0.7,0-1.3,0.6-1.3,1.3v2.9c0,0.7,0.6,1.3,1.3,1.3c0.7,0,1.3-0.6,1.3-1.3v-2.9C15.3,38.6,14.7,38.1,14,38.1z"/>
    </g>
</svg>