<svg xmlns="http://www.w3.org/2000/svg" xmlns:xlink="http://www.w3.org/1999/xlink" version="1.1" x="0px" y="0px" viewBox="0 0 100 125" enable-background="new 0 0 100 100" xml:space="preserve">
    <g>
        <path fill-rule="evenodd" clip-rule="evenodd" d="M9.226,68.19c0-4.754,3.947-8.609,8.814-8.609s8.814,3.855,8.814,8.609   c0,4.756-3.947,8.611-8.814,8.611S9.226,72.946,9.226,68.19L9.226,68.19z"/>
        <path fill-rule="evenodd" clip-rule="evenodd" d="M30.703,91.435c0-5.724-4.495-10.378-10.068-10.378c-5.573,0-5.573,0-5.573,0   c-5.573,0-9.888,4.654-9.888,10.378c0,3.399,0,3.399,0,3.399c25.529,0,25.529,0,25.529,0V91.435L30.703,91.435L30.703,91.435z"/>
        <path fill-rule="evenodd" clip-rule="evenodd" d="M41.035,68.19c0-4.754,3.945-8.609,8.814-8.609c4.867,0,8.812,3.855,8.812,8.609   c0,4.756-3.945,8.611-8.812,8.611C44.98,76.802,41.035,72.946,41.035,68.19L41.035,68.19z"/>
        <path fill-rule="evenodd" clip-rule="evenodd" d="M62.513,91.435c0-5.724-4.313-10.378-9.881-10.378c-5.568,0-5.568,0-5.568,0   c-5.568,0-9.879,4.654-9.879,10.378c0,3.399,0,3.399,0,3.399c25.328,0,25.328,0,25.328,0V91.435L62.513,91.435L62.513,91.435z"/>
        <path fill-rule="evenodd" clip-rule="evenodd" d="M72.844,68.19c0-4.754,3.946-8.609,8.813-8.609s8.813,3.855,8.813,8.609   c0,4.756-3.945,8.611-8.813,8.611S72.844,72.946,72.844,68.19L72.844,68.19z"/>
        <path fill-rule="evenodd" clip-rule="evenodd" d="M94.319,91.435c0-5.724-4.278-10.378-9.808-10.378c-5.53,0-5.53,0-5.53,0   c-5.529,0-9.987,4.654-9.987,10.378c0,3.399,0,3.399,0,3.399c25.325,0,25.325,0,25.325,0V91.435L94.319,91.435L94.319,91.435z"/>
        <path fill-rule="evenodd" clip-rule="evenodd" d="M92.347,4.676c-85.199,0-85.199,0-85.199,0c-1.077,0-1.974,0.896-1.974,1.973   c0,40.018,0,40.018,0,40.018c0,1.077,0.897,1.974,1.974,1.974c85.199,0,85.199,0,85.199,0c1.077,0,1.973-0.897,1.973-1.974   c0-40.018,0-40.018,0-40.018C94.319,5.572,93.424,4.676,92.347,4.676L92.347,4.676z M17.012,14.007c27.802,0,27.802,0,27.802,0   c0,17.586,0,17.586,0,17.586c-5.021-4.128-5.021-4.128-5.021-4.128c-7.175,5.563-7.175,5.563-7.175,5.563   c-7.175-12.74-7.175-12.74-7.175-12.74c-8.43,12.74-8.43,12.74-8.43,12.74V14.007L17.012,14.007L17.012,14.007z M81.226,38.411   c-24.573,0-24.573,0-24.573,0c-0.538,0-1.076-0.538-1.076-1.255c0-0.718,0.538-1.256,1.076-1.256c24.573,0,24.573,0,24.573,0   c0.538,0,0.896,0.538,0.896,1.256C82.122,37.873,81.764,38.411,81.226,38.411L81.226,38.411z M81.226,31.414   c-24.573,0-24.573,0-24.573,0c-0.538,0-1.076-0.539-1.076-1.256c0-0.717,0.538-1.256,1.076-1.256c24.573,0,24.573,0,24.573,0   c0.538,0,0.896,0.539,0.896,1.256C82.122,30.875,81.764,31.414,81.226,31.414L81.226,31.414z M81.226,24.415   c-24.573,0-24.573,0-24.573,0c-0.538,0-1.076-0.539-1.076-1.257c0-0.538,0.538-1.256,1.076-1.256c24.573,0,24.573,0,24.573,0   c0.538,0,0.896,0.718,0.896,1.256C82.122,23.876,81.764,24.415,81.226,24.415L81.226,24.415z M81.226,17.417   c-24.573,0-24.573,0-24.573,0c-0.538,0-1.076-0.539-1.076-1.256c0-0.538,0.538-1.077,1.076-1.077c24.573,0,24.573,0,24.573,0   c0.538,0,0.896,0.539,0.896,1.077C82.122,16.877,81.764,17.417,81.226,17.417L81.226,17.417z"/>
    </g>
</svg>