<svg width="94px" height="51px" viewBox="0 0 94 51" version="1.1" xmlns="http://www.w3.org/2000/svg" xmlns:xlink="http://www.w3.org/1999/xlink">
    <g stroke="none" stroke-width="1" fill="none" fill-rule="evenodd">
        <path d="M30.8344386,36 C30.4877445,36 30.1695004,35.872865 29.9379299,35.6395656 C29.4450155,35.1447875 29.4264898,34.3105457 29.8975704,33.8177336 L35.607438,27.8391101 L-1.64828976,27.8391101 C-2.39394685,27.8391101 -3,27.2388231 -3,26.5002602 C-3,25.7616974 -2.39394685,25.160755 -1.64828976,25.160755 L35.6047914,25.160755 L29.8975704,19.1854082 C29.4178886,18.6834214 29.4423689,17.8275535 29.9485159,17.3530908 C30.4672339,16.8661767 31.2764075,16.8851815 31.7904941,17.3956876 L39.6473512,25.610315 C39.8564263,25.8265756 39.9801511,26.1352385 39.9986767,26.4792895 L40,26.5041922 L39.9986767,26.5297503 C39.9827976,26.7610837 39.9622871,27.0743339 39.6427198,27.3974142 L31.797772,35.5995902 C31.5589235,35.8499282 31.2122294,35.996068 30.8483328,36 L30.8344386,36 Z" id="Fill-1" fill="#141E54" transform="translate(18.500000, 26.500000) rotate(-270.000000) translate(-18.500000, -26.500000) "></path>
    </g>
</svg>
