<svg width="26px" height="27px" viewBox="0 0 26 27" xmlns="http://www.w3.org/2000/svg" xmlns:xlink="http://www.w3.org/1999/xlink">
    <g stroke="none" stroke-width="1" fill="none" fill-rule="evenodd">
        <path d="M10.8730808,18.9583443 C6.44159126,18.9583443 2.83645586,15.343936 2.83645586,10.901048 C2.83645586,6.45815999 6.44159126,2.84375165 10.8730808,2.84375165 C15.3045703,2.84375165 18.9097057,6.45815999 18.9097057,10.901048 C18.9097057,15.343936 15.3045703,18.9583443 10.8730808,18.9583443 M25.604687,24.5927642 L19.1952423,17.9089999 C20.8432231,15.9453894 21.7461616,13.4736953 21.7461616,10.901048 C21.7461616,4.89030491 16.868403,0 10.8730808,0 C4.87728585,0 0,4.89030491 0,10.901048 C0,16.912265 4.87728585,21.802096 10.8730808,21.802096 C13.1238085,21.802096 15.2686419,21.1214914 17.1024106,19.8294802 L23.5605479,26.5634841 C23.8304839,26.8450155 24.1935503,27 24.5826174,27 C24.9504112,27 25.3002408,26.8587603 25.5654494,26.6028227 C26.1289586,26.0591922 26.1469229,25.1577229 25.604687,24.5927642" id="Fill-1" fill="#141E54"></path>
    </g>
</svg>
